<?xml version="1.0" standalone="no"?>
<!DOCTYPE svg PUBLIC "-//W3C//DTD SVG 1.1//EN" "http://www.w3.org/Graphics/SVG/1.1/DTD/svg11.dtd" >
<!--
2013-9-30: Created.
-->
<svg>
<metadata>
Created by iconfont
</metadata>
<defs>

<font id="iconfont" horiz-adv-x="1024" >
  <font-face
    font-family="iconfont"
    font-weight="500"
    font-stretch="normal"
    units-per-em="1024"
    ascent="896"
    descent="-128"
  />
    <missing-glyph />
    
    <glyph glyph-name="dashujujiankongpingtai11" unicode="&#58990;" d="M995.392 280c-0.512-9.024-7.616-15.872-15.808-15.232-0.512 0.064-0.96 0.064-1.536 0.192-7.424 1.408-12.928 8.832-12.416 17.344 10.688 185.664-147.584 217.728-154.304 219.008-8.128 1.536-13.632 9.984-12.288 18.944 1.344 8.96 9.024 14.976 17.216 13.376C818.176 533.312 1007.808 494.976 995.392 280L995.392 280zM924.096 270.016c-0.96-9.024-8.32-15.488-16.512-14.4-0.256 0-0.512 0.064-0.768 0.128-7.808 1.472-13.312 9.408-12.416 18.112 11.2 110.912-92.416 144.512-96.896 145.856-7.936 2.432-12.608 11.52-10.432 20.224s10.432 13.824 18.304 11.392C851.328 437.312 935.296 381.312 924.096 270.016L924.096 270.016zM865.536 185.92c0-124.032-60.288-201.28-171.84-201.28L229.44-15.36c-78.016 0-129.408 47.104-129.408 133.888 0 63.232 33.728 107.584 82.048 132.544C181.696 256.064 180.736 270.72 180.736 275.776c0 99.264 59.776 156.352 148.928 156.352 12.928 0 25.28-2.112 37.312-5.248 28.864 69.248 83.072 117.568 156.16 117.568 87.04 0 146.88-59.968 164.736-150.784L687.872 394.816C791.872 385.664 865.536 304 865.536 185.92L865.536 185.92zM291.264 62.976c0-28.928 11.904-33.6 30.272-33.6l342.272 0c18.752 0 30.272 10.24 30.272 33.6l-0.064 65.92c0 24.832-8.448 34.88-30.208 34.88L321.472 163.776c-23.168 0-30.208-15.104-30.208-34.88L291.264 62.976 291.264 62.976zM663.808 331.84 321.472 331.84c-23.168 0-30.208-15.104-30.208-34.88l0-65.92c0-28.928 11.904-33.6 30.272-33.6l342.272 0c18.752 0 30.272 10.24 30.272 33.6l-0.064 65.92C693.952 321.728 685.504 331.84 663.808 331.84L663.808 331.84zM553.024 286.976l100.672 0 0-44.8L553.024 242.176 553.024 286.976 553.024 286.976zM462.464 275.776l20.096 0 0-22.4L462.464 253.376 462.464 275.776 462.464 275.776zM422.208 275.776l20.096 0 0-22.4L422.208 253.376 422.208 275.776 422.208 275.776zM381.888 275.776l20.096 0 0-22.4L381.888 253.376 381.888 275.776 381.888 275.776zM341.632 275.776l20.096 0 0-22.4L341.632 253.376 341.632 275.776 341.632 275.776zM361.792 85.376 341.632 85.376l0 22.4 20.096 0L361.728 85.376 361.792 85.376zM402.048 85.376 381.888 85.376l0 22.4 20.096 0L401.984 85.376 402.048 85.376zM442.368 85.376 422.208 85.376l0 22.4 20.096 0L442.304 85.376 442.368 85.376zM482.624 85.376 462.464 85.376l0 22.4 20.096 0L482.56 85.376 482.624 85.376zM653.696 74.24 553.024 74.24l0 44.8 100.672 0L653.696 74.24 653.696 74.24zM653.696 74.24"  horiz-adv-x="1024" />

    
    <glyph glyph-name="siji-quyurenyuanfenbu" unicode="&#59175;" d="M905.6 24l-88 192c-9.6 22.4-32 36.8-56 36.8h-30.4l-9.6-14.4-9.6-14.4c-73.6-99.2-156.8-158.4-200-158.4s-126.4 59.2-200 158.4l-9.6 14.4-9.6 14.4h-30.4c-24 0-46.4-14.4-56-36.8l-88-192c-19.2-41.6 11.2-88 56-88H848c46.4 0 76.8 46.4 57.6 88z m-51.2-28.8c-1.6-3.2-4.8-3.2-4.8-3.2H174.4c-1.6 0-3.2 0-4.8 3.2-1.6 3.2-1.6 4.8 0 6.4l88 192c1.6 1.6 3.2 3.2 6.4 3.2 1.6-1.6 3.2-3.2 3.2-4.8 60.8-83.2 163.2-180.8 244.8-180.8S696 108.8 756.8 192l4.8 4.8c3.2 0 4.8-1.6 6.4-3.2l88-192c0-1.6 0-3.2-1.6-6.4zM512 142.4c56 0 299.2 225.6 299.2 390.4S676.8 832 512 832s-299.2-134.4-299.2-299.2S456 142.4 512 142.4zM288 532.8c0 123.2 100.8 224 224 224s224-100.8 224-224-100.8-224-224-224-224 100.8-224 224zM617.6 609.6l30.4 22.4c-8 9.6-16 19.2-25.6 27.2l-25.6-27.2c9.6-8 16-14.4 20.8-22.4zM411.2 616L382.4 640l-4.8-4.8 33.6-16c-12.8-19.2-6.4-11.2 0-3.2zM593.6 680c-9.6 6.4-20.8 9.6-32 14.4l-11.2-35.2c9.6-3.2 17.6-6.4 27.2-11.2l16 32zM564.8 414.4l14.4-33.6c1.6 1.6 4.8 1.6 6.4 3.2 4.8 3.2 9.6 4.8 14.4 8l1.6 1.6-22.4 30.4c3.2-1.6-6.4-6.4-14.4-9.6zM611.2 448l28.8-24 9.6 14.4c1.6 1.6 1.6 3.2 3.2 4.8l-33.6 17.6c3.2 3.2-1.6-4.8-8-12.8zM638.4 499.2l36.8-9.6c1.6 4.8 1.6 8 3.2 12.8v1.6 6.4L643.2 528l-4.8-28.8zM640 556.8l36.8 6.4v1.6c-1.6 3.2-3.2 8-4.8 11.2l-33.6-14.4c-1.6 12.8 0 4.8 1.6-4.8zM435.2 384c4.8-3.2 9.6-4.8 14.4-6.4h3.2c4.8-1.6 8-3.2 12.8-3.2l9.6 36.8c-9.6 3.2-19.2 6.4-27.2 9.6l-12.8-36.8zM520 664l1.6 36.8h-6.4-1.6-1.6c-6.4 0-12.8-1.6-19.2-3.2l8-36.8c9.6 1.6 19.2 3.2 28.8 3.2h-9.6zM512 364.8c1.6 0 1.6 0 0 0 1.6 0 1.6 0 0 0 1.6 0 1.6 0 0 0 1.6 0 1.6 0 0 0 1.6 0 1.6 0 0 0 1.6 0 1.6 0 0 0 1.6 0 1.6 0 0 0 1.6 0 1.6 0 0 0 1.6 0 1.6 0 0 0 1.6 0 1.6 0 0 0 1.6 0 1.6 0 0 0 1.6 0 1.6 0 0 0 1.6 0 1.6 0 0 0 1.6 0 1.6 0 0 0h3.2c6.4 0 12.8 1.6 17.6 3.2l-6.4 36.8c-8-1.6-16-1.6-25.6-1.6h-3.2l-1.6-36.8c12.8-1.6 12.8-1.6 16-1.6-1.6 0-1.6 0 0 0zM385.6 564.8l-36.8 8c-1.6-4.8-1.6-9.6-3.2-16v-9.6h36.8c-1.6-1.6 0 8 3.2 17.6zM384 507.2l-36.8-8v-1.6c1.6-6.4 4.8-12.8 8-19.2l33.6 16c0-6.4-3.2 3.2-4.8 12.8zM440 684.8c-1.6 0-1.6 0 0 0-1.6 0-1.6 0 0 0-1.6 0-1.6 0 0 0-1.6 0-1.6 0 0 0-1.6 0-1.6 0 0 0-1.6 0-1.6 0 0 0-1.6 0-1.6 0 0 0-1.6 0-1.6 0 0 0-1.6 0-1.6 0 0 0-1.6 0-1.6 0 0 0-1.6 0-1.6 0 0 0-1.6 0-1.6 0 0 0-1.6 0-1.6 0 0 0h-1.6l-9.6-4.8-1.6-1.6 22.4-28.8c8 6.4 16 11.2 24 16l-33.6 19.2zM408 454.4L379.2 432l4.8-4.8 24 28.8c12.8-16 6.4-9.6 0-1.6z"  horiz-adv-x="1024" />

    
    <glyph glyph-name="tubiao16" unicode="&#58934;" d="M772.98 396.76c8.719 0 15.786 7.067 15.786 15.786v115.625l-258.148 242.755h-255.557c-63.648 0-115.429-51.775-115.429-115.416v-507.044c0-63.675 51.781-115.479 115.429-115.479h398.278c54.597 0 102.151 38.788 113.069 92.231 1.746 8.542-3.765 16.88-12.305 18.626-8.547 1.748-16.88-3.765-18.625-12.306-7.931-38.811-42.474-66.979-82.139-66.979h-398.278c-46.24 0-83.858 37.641-83.858 83.909v507.044c0 46.232 37.619 83.846 83.858 83.846h220.075v-157.841c0-54.986 44.793-99.627 99.764-99.627h162.296v-69.341c-0.001-8.72 7.066-15.788 15.784-15.788zM634.054 390.148h-354.674c-6.539 0-11.839 5.301-11.839 11.839s5.301 11.839 11.839 11.839h354.674c6.539 0 11.839-5.301 11.839-11.839s-5.3-11.839-11.839-11.839zM477.651 277.433h-198.27c-6.539 0-11.839 5.301-11.839 11.839s5.301 11.839 11.839 11.839h198.27c6.539 0 11.839-5.301 11.839-11.839s-5.301-11.839-11.839-11.839zM477.651 164.649h-198.27c-6.539 0-11.839 5.301-11.839 11.839s5.301 11.839 11.839 11.839h198.27c6.539 0 11.839-5.301 11.839-11.839s-5.301-11.839-11.839-11.839zM426.873 610.588h-147.492c-4.359 0-7.893 3.533-7.893 7.893s3.533 7.893 7.893 7.893h147.492c4.359 0 7.893-3.533 7.893-7.893s-3.533-7.893-7.893-7.893zM426.873 527.962h-147.492c-4.359 0-7.893 3.533-7.893 7.893s3.533 7.893 7.893 7.893h147.492c4.359 0 7.893-3.533 7.893-7.893s-3.533-7.893-7.893-7.893zM713.293 211.778c0-8.682-7.103-15.786-15.786-15.786h-147.438c-8.682 0-15.786 7.103-15.786 15.786v107.81c0 8.682 7.103 15.786 15.786 15.786h147.438c8.682 0 15.786-7.103 15.786-15.786v-107.81zM693.5 378.232c0 17.363 10.986 22.564 24.415 11.555l126.968-104.089c13.429-11.009 13.429-29.022 0-40.031l-126.968-104.085c-13.429-11.008-24.415-5.808-24.415 11.555v225.094z"  horiz-adv-x="1024" />

    
    <glyph glyph-name="xiala" unicode="&#58913;" d="M755.342 462.11L537.778 224.2a34.238 34.238 0 0 0-25.718-11.637 34.238 34.238 0 0 0-25.72 11.637L268.777 462.11c-10.621 11.218-13.903 27.568-8.414 42.009s18.737 24.525 34.133 25.897h434.949c15.455-1.313 28.761-11.337 34.251-25.838 5.55-14.5 2.268-30.79-8.354-42.068z"  horiz-adv-x="1024" />

    
    <glyph glyph-name="xiala1" unicode="&#58932;" d="M268.658 305.89L486.222 543.8a34.238 34.238 0 0 0 25.718 11.637A34.238 34.238 0 0 0 537.66 543.8L755.223 305.89c10.621-11.218 13.903-27.56799999 8.414-42.009s-18.737-24.525-34.133-25.897l-434.949 0c-15.455 1.313-28.761 11.337-34.251 25.838-5.55 14.5-2.268 30.79 8.354 42.068z"  horiz-adv-x="1024" />

    
    <glyph glyph-name="fuwei" unicode="&#58931;" d="M183.768615 319.889007h0.064448v-273.157371h-0.064448zM755.468531 831.552448H268.531469C149.890685 831.552448 53.706294 735.368056 53.706294 616.727273v-486.937063c0-118.640783 96.184392-214.825175 214.825175-214.825175h486.937062c118.640783 0 214.825175 96.184392 214.825175 214.825175V616.727273c0 118.640783-96.184392 214.825175-214.825175 214.825175zM352.914797 245.308867c0.837818-1.009678 1.589706-2.098126 2.427525-3.100643a185.408448 185.408448 0 0 1 12.144783-13.56979c0.250629-0.243469 0.501259-0.501259 0.673119-0.744728a204.026629 204.026629 0 0 1 46.301986-35.181203 2.21986 2.21986 0 0 0 0.665958-0.329398c5.026909-2.764084 10.218517-5.198769 15.496056-7.540364 1.009678-0.42249 2.005035-0.923748 3.014713-1.346238 4.51849-1.926266 9.122909-3.508811 13.813259-5.105678 1.926266-0.580028 3.852531-1.339077 5.778797-1.926266 4.110322-1.167217 8.206322-2.176895 12.316643-3.179412 2.506294-0.580028 5.098517-1.253147 7.697902-1.761567 4.275021-0.830657 8.542881-1.417846 12.896672-2.005035 2.262825-0.243469 4.51849-0.587189 6.781314-0.837818 5.528168-0.501259 11.049175-0.751888 16.663273-0.830657 42.370685-0.59435 83.824783 12.058853 119.249455 37.179077 14.486378 10.297287 34.579692 6.774154 44.791049-8.292252 10.218517-14.658238 6.623776-35.009343-7.869763-45.306629-45.643189-32.395636-98.72649-49.230769-153.234797-49.230769-8.879441 0-17.75172 0.587189-26.70993 1.510937l-5.363468 0.744727c-4.940979 0.587189-9.960727 1.081287-14.901707 2.012196-1.510937 0.243469-2.850014 0.665958-4.35379 1.002517-3.601902 0.673119-7.031944 1.596867-10.555077 2.434685a305.216448 305.216448 0 0 0-15.653594 4.096c-2.764084 0.837818-5.528168 1.840336-8.292252 2.771245a307.951888 307.951888 0 0 0-17.336392 6.444755c-1.668476 0.744727-3.265343 1.496615-4.933818 2.262826a274.403357 274.403357 0 0 0-19.513286 9.538237l-1.761567 1.002518a265.416503 265.416503 0 0 0-60.208336 45.721958c-0.501259 0.501259-1.002517 1.009678-1.510937 1.596867a252.297846 252.297846 0 0 0-15.402965 17.164532c-1.260308 1.589706-2.427524 3.258182-3.687832 4.855048-3.351273 4.189091-6.781315 8.378182-9.881958 12.810742-0.336559 0.580028-0.673119 1.260308-1.009678 1.854657a271.402965 271.402965 0 0 0-47.476364 153.736056h-47.225734c-1.253147 0-2.427524 0.665958-3.014713 1.840336s-0.501259 2.513455 0.17186 3.515972l79.377902 120.58137a3.379916 3.379916 0 0 0 2.842853 1.503777c1.167217 0 2.255664-0.587189 2.850014-1.503777l79.377902-120.58137a3.530294 3.530294 0 0 0 0.164699-3.515972 3.336951 3.336951 0 0 0-3.014713-1.840336H308.274126a206.905287 206.905287 0 0 1 44.640671-128.451133z m477.047944 123.331133l-79.385063-120.57421a3.379916 3.379916 0 0 0-2.842853-1.510937 3.387077 3.387077 0 0 0-2.842853 1.510937L665.499748 368.64c-0.673119 1.009678-0.751888 2.355916-0.164699 3.523133s1.754406 1.840336 3.014713 1.840336h47.225735a207.077147 207.077147 0 0 1-46.301987 130.628028c-0.093091 0.17186-0.164699 0.336559-0.336559 0.508419a204.957538 204.957538 0 0 1-76.792839 58.274909c-0.501259 0.164699-1.002517 0.42249-1.503776 0.673119a221.248448 221.248448 0 0 1-15.238266 5.692867c-1.425007 0.415329-2.850014 0.923748-4.26786 1.425007-4.52565 1.425007-9.216 2.513455-13.82042 3.594741a122.45035 122.45035 0 0 1-6.194126 1.425007 164.513119 164.513119 0 0 1-14.400447 2.255665c-1.840336 0.17186-3.601902 0.50842-5.442238 0.673119a179.522238 179.522238 0 0 1-17.91642 0.923748c-42.112895 0.42249-83.151664-12.230713-118.318545-37.179077a31.837091 31.837091 0 0 0-44.79821 7.955692c-10.132587 14.737007-6.616615 35.002182 7.955693 45.30663 45.550098 32.324028 98.554629 48.987301 152.984167 48.9873 0.250629 0 0.415329 0.078769 0.665958 0.07877 1.339077 0 2.592224-0.164699 3.852532-0.1647 7.117874-0.164699 14.156979-0.415329 21.274853-1.088447 3.014713-0.336559 5.857566-0.837818 8.79351-1.174378 4.26786-0.501259 8.456951-0.837818 12.724812-1.589706 1.589706-0.336559 3.014713-0.751888 4.604419-1.088448 3.179413-0.665958 6.365986-1.417846 9.459469-2.176895 5.692867-1.339077 11.306965-2.764084 16.835133-4.432559 2.341594-0.759049 4.60442-1.589706 6.860084-2.348756 6.365986-2.176895 12.646042-4.43972 18.840167-7.031944 1.081287-0.42249 2.090965-0.916587 3.179413-1.425007 38.775944-16.835133 72.847217-42.621315 100.065566-76.03379 0.50842-0.587189 1.009678-1.253147 1.425007-1.840335 4.024392-5.019748 8.041622-9.960727 11.722294-15.317035 0.501259-0.673119 0.844979-1.425007 1.260308-2.176896a271.897063 271.897063 0 0 0 47.218573-153.406657l47.146965 0.08593c1.260308 0 2.427524-0.673119 3.014714-1.840335a3.551776 3.551776 0 0 0-0.1647-3.537455z"  horiz-adv-x="1024" />

    
    <glyph glyph-name="zhuye-copy" unicode="&#58912;" d="M549.807 768.057c0 0-18.348 19.205-36.647 19.205-18.348 0-36.697-19.205-36.697-19.205s-322.46-322.408-345.697-345.647c-30.9-30.951-18.298-57.617-18.298-57.617l15.777-17.442c0 0 16.433-18.298 36.696-18.298h36.647v-311.672c0 0-1.715-36.647 36.697-36.647h146.636c38.108 0 36.647 36.647 36.647 36.647v91.641c0 0 1.26 36.698 36.697 36.698h91.54c36.848 0 36.698-36.698 36.698-36.698v-91.641c0 0-2.066-36.647 36.647-36.647h146.636c38.814 0 36.696 36.647 36.696 36.647v311.621h36.697c19.306 0 36.697 18.298 36.697 18.298l18.298 17.441c0 0 34.327 25.809 2.521 57.617l-350.889 345.696z"  horiz-adv-x="1024" />

    
    <glyph glyph-name="genzong" unicode="&#58905;" d="M64 416h96v-64H64z m800 0h96v-64h-96zM320 384a192 192 0 1 1 384 0 192 192 0 1 1-384 0zM512 0a382.88 382.88 0 1 0 149.48 30.19A381.62 381.62 0 0 0 512 0z m0 717.55a332.42 332.42 0 1 1 129.82-26.2A331.44 331.44 0 0 1 512 717.55zM480 832h64v-96h-64z m0-800h64v-96h-64z"  horiz-adv-x="1024" />

    
    <glyph glyph-name="electric-quantity-20" unicode="&#58922;" d="M150.432323 562.424242h93.866667v-359.822222H150.432323zM910.416162 281.987879h44.476767V482.909091h-44.476767V640H69.107071v-515.10303h841.309091V281.987879zM122.117172 176.61414100000002V588.282828h735.418182v-411.668687H122.117172z m0 0"  horiz-adv-x="1024" />

    
    <glyph glyph-name="electric-quantity-100-copy-copy-copy-copy-copy-copy-copy-copy" unicode="&#58924;" d="M921.95908266 1283.117056L919.91108266 1283.117056ZM809.08356266 547.12115199l0-347.92857598-90.763264-1e-8 0 347.928576 90.763264-1e-8ZM669.30756266 547.1211519999999l0-347.928576-90.763264 0 0 347.928576 90.763264 0ZM529.53156266 547.1211519999999l0-347.928576-90.761216 0 0 347.928576 90.761216 0ZM389.75556265 547.1211519999999l0-347.928576-90.76121599 0 0 347.928576 90.76121599 0ZM249.97956266 547.1211519999999l0-347.928576-90.761216 1e-8 0 347.92857598 90.761216 1e-8ZM894.02845865 275.99462400000004L937.08561066 275.99462400000004l0 194.326528-43.055104 0 0 151.855104-813.379584 0 0-498.038784L894.02845865 124.137472 894.02845865 275.99462400000004zM131.84682666 174.17625599999997L131.84682666 572.137472l710.98368 0 0-397.961216L131.84682666 174.17625599999997z"  horiz-adv-x="1024" />

    
    <glyph glyph-name="electric-quantity-100-copy-copy-copy-copy-copy-copy-copy-copy-copy" unicode="&#58927;" d="M921.95908266 1283.117056L919.91108266 1283.117056ZM809.08356266 547.12115199l0-347.92857598-90.763264-1e-8 0 347.928576 90.763264-1e-8ZM669.30756266 547.1211519999999l0-347.928576-90.763264 0 0 347.928576 90.763264 0ZM529.53156266 547.1211519999999l0-347.928576-90.761216 0 0 347.928576 90.761216 0ZM389.75556265 547.1211519999999l0-347.928576-90.76121599 0 0 347.928576 90.76121599 0ZM249.97956266 547.1211519999999l0-347.928576-90.761216 1e-8 0 347.92857598 90.761216 1e-8ZM894.02845865 275.99462400000004L937.08561066 275.99462400000004l0 194.326528-43.055104 0 0 151.855104-813.379584 0 0-498.038784L894.02845865 124.137472 894.02845865 275.99462400000004zM131.84682666 174.17625599999997L131.84682666 572.137472l710.98368 0 0-397.961216L131.84682666 174.17625599999997z"  horiz-adv-x="1024" />

    
    <glyph glyph-name="electric-quantity-100-copy-copy-copy-copy-copy-copy-copy-copy-copy-copy" unicode="&#58928;" d="M921.95908266 1283.117056L919.91108266 1283.117056ZM809.08356266 547.12115199l0-347.92857598-90.763264-1e-8 0 347.928576 90.763264-1e-8ZM669.30756266 547.1211519999999l0-347.928576-90.763264 0 0 347.928576 90.763264 0ZM529.53156266 547.1211519999999l0-347.928576-90.761216 0 0 347.928576 90.761216 0ZM389.75556265 547.1211519999999l0-347.928576-90.76121599 0 0 347.928576 90.76121599 0ZM249.97956266 547.1211519999999l0-347.928576-90.761216 1e-8 0 347.92857598 90.761216 1e-8ZM894.02845865 275.99462400000004L937.08561066 275.99462400000004l0 194.326528-43.055104 0 0 151.855104-813.379584 0 0-498.038784L894.02845865 124.137472 894.02845865 275.99462400000004zM131.84682666 174.17625599999997L131.84682666 572.137472l710.98368 0 0-397.961216L131.84682666 174.17625599999997z"  horiz-adv-x="1024" />

    
    <glyph glyph-name="cross-fill" unicode="&#58914;" d="M756.736 83.96799999999996L512 328.70399999999995 267.776 84.48000000000002c-12.8-12.8-28.672-7.168-45.568 9.728-16.896 16.896-23.04 32.768-9.728 45.568L456.704 384 211.968 628.736c-14.848 15.36-6.144 30.208 8.704 45.568 16.896 16.896 30.72 25.6 46.592 10.24L512 439.296 756.736 683.52c14.336 14.336 28.672 7.168 47.104-11.264 15.36-15.36 23.552-28.672 8.192-44.032L567.296 384 811.52 139.77599999999995c15.36-15.36 8.704-28.672-8.192-46.08-16.896-17.408-33.792-22.528-46.592-9.728z"  horiz-adv-x="1024" />

    
    <glyph glyph-name="qingchu" unicode="&#58915;" d="M12.520841-65.408313m31.295844 0l938.875305 0q31.295844 0 31.295844-31.295843l0 0q0-31.295844-31.295844-31.295844l-938.875305 0q-31.295844 0-31.295844 31.295844l0 0q0 31.295844 31.295844 31.295843ZM570.348379 890.780657m44.259006-44.259007l309.813045-309.813044q44.259006-44.259006 0-88.518013l-322.648157-322.648156q-44.259006-44.259006-88.518012 0l-309.813045 309.813044q-44.259006 44.259006 0 88.518013l322.648157 322.648156q44.259006 44.259006 88.518012 0ZM557.694435 76.0489a93.261614 93.261614 0 0 0-66.347188 27.540342L181.518396 413.418093a93.261614 93.261614 0 0 0 0 132.694376L503.865584 868.459658a93.261614 93.261614 0 0 0 131.442543 0l312.958435-309.828851a94.513447 94.513447 0 0 0 0-132.694377l-324.224939-322.347188a94.513447 94.513447 0 0 0-66.347188-27.540342zM572.71644 833.408313a29.418093 29.418093 0 0 1-21.90709-9.388753L225.332577 501.672372a31.295844 31.295844 0 0 1 0-43.814181l309.828851-312.958435a31.295844 31.295844 0 0 1 44.440098 0l322.347188 325.476772a30.04401 30.04401 0 0 1 0 43.814181L592.119863 824.01956A29.418093 29.418093 0 0 1 572.71644 833.408313zM178.982582 459.879525m44.259006-44.259007l269.979939-269.979938q44.259006-44.259006 0-88.518013l-75.682901-75.682901q-44.259006-44.259006-88.518013 0l-269.979939 269.979939q-44.259006 44.259006 0 88.518013l75.682901 75.6829q44.259006 44.259006 88.518013 0ZM373.048958-68.537897A94.513447 94.513447 0 0 0 306.70177-42.875306L36.931599 228.772616a93.887531 93.887531 0 0 0 0 133.320294l75.735941 75.735941a93.887531 93.887531 0 0 0 66.347189 27.540342 93.887531 93.887531 0 0 0 66.347188-27.540342l270.396088-270.396088a92.00978 92.00978 0 0 0 26.914425-66.347188 94.513447 94.513447 0 0 0-26.914425-66.347189L439.396147-42.875306a93.261614 93.261614 0 0 0-66.347189-25.662591z m-194.034229 471.315403a31.92176 31.92176 0 0 1-21.907091-7.511002L81.371697 317.652812a31.295844 31.295844 0 0 1 0-44.440098l269.770171-269.770171a31.295844 31.295844 0 0 1 44.440098 0l75.735941 75.735941a31.295844 31.295844 0 0 1 8.762836 21.907091 32.547677 32.547677 0 0 1-8.762836 22.533007L200.921819 395.266504a31.92176 31.92176 0 0 1-21.90709 9.388753z"  horiz-adv-x="1024" />

    
    <glyph glyph-name="huizhi" unicode="&#58918;" d="M162.105 718.569H80.61c0-45.011 36.484-81.495 81.495-81.495 45.002 0 81.487 36.484 81.487 81.495 0 45.003-36.484 81.487-81.487 81.487-45.011 0-81.495-36.484-81.495-81.487h81.495zM80.61 47.072c0-44.984 36.484-81.479 81.495-81.479 45.002 0 81.487 36.494 81.487 81.479 0 45.018-36.484 81.494-81.487 81.494-45.011 0-81.495-36.476-81.495-81.494zM752.1 718.569c0-45.011 36.475-81.495 81.494-81.495 45.004 0 81.48 36.484 81.48 81.495 0 45.003-36.477 81.487-81.48 81.487-45.02 0.001-81.494-36.484-81.494-81.487zM162.105 759.311h671.489v-81.487H162.105v81.487z m0-671.493H439.5v-81.496H162.105v81.496zM202.847 718.569v-671.497h-81.488V718.569h81.488z m671.497 0v-281.81h-81.496V718.584l81.496-0.015zM800.184 368.523l114.842-114.846-235.732-235.85-114.862 114.862 235.752 235.834z m125.728-103.955L811.055 379.369l31.279 31.287c13.527 13.52 35.465 13.52 48.979 0h0.014l65.932-65.931c13.512-13.529 13.527-35.467 0-48.992l-31.277-31.279-0.07 0.114zM513.49-34.457l154.896 41.561-113.425 113.441-41.471-155.002z"  horiz-adv-x="1024" />

    
    <glyph glyph-name="cell-33" unicode="&#58902;" d="M829.23540576 632.64445987c9.30891885 0 16.88229756-7.57337872 16.88229668-16.88108115v-385.90783859c0-9.30770244-7.57337872-16.88108115-16.88229668-16.88108026H142.35662129c-9.30891885 0-16.88229756 7.57337872-16.88229668 16.88108026V615.76337872c0 9.30770244 7.57337872 16.88108115 19.2271623 16.88108115h686.87878359-2.34486474z m12.85662129 38.99067539H129.5c-26.86743281 0-48.64864834-21.78-48.64864834-48.64864834v-400.35527051c0-26.86743281 21.78121641-48.64864834 48.64864834-48.64864922h712.59202705c26.86743281 0 48.64864834 21.78121641 48.64864834 48.64864922V622.9864869200001c0 26.86864834-21.78121641 48.64864834-48.64864834 48.64864834M923.02756719 458.42148692v-70.92121642h-18.19337784v70.92121641h18.19337784z m15.87283857 35.64608027h-49.94148691c-10.92040576 0-19.77081065-8.85283769-19.77081065-19.77202706v-102.66810732c0-10.92040576 8.85040576-19.77324346 19.77081065-19.77324346h49.94148691c10.92040576 0 19.77324346 8.85283769 19.77324258 19.77324346v102.66810732c0 10.91918935-8.8540541 19.77202705-19.77324258 19.77202706M511.4818918 465.39648691l48.37743281 144.52662129L300.98648692 398.74054013l159.50675654-18.57162128-47.93229757-144.0778377L660.98648691 439.33783769z"  horiz-adv-x="1024" />

    
    <glyph glyph-name="dianliang" unicode="&#58971;" d="M779.317895 395.210105l-203.776 60.362106c-13.797053 4.311579-17.354105 20.857263-7.221895 35.247157L820.116211 859.621053c18.432 27.324632-9.539368 48.882526-36.001685 28.025263L208.896 422.534737c-18.324211-15.090526-19.024842-38.804211-1.131789-43.870316l203.722105-60.362105c13.797053-4.311579 17.354105-20.857263 7.221895-35.247158L167.612632-85.746526c-18.324211-27.324632 9.593263-48.882526 36.109473-28.025263l574.517895 465.111578c18.701474 14.389895 18.970947 38.804211 1.077895 43.870316z"  horiz-adv-x="1024" />

    
    <glyph glyph-name="tubiao_ditu" unicode="&#59018;" d="M995.84 616.96a60.330667 60.330667 0 0 1-58.88 3.413333l-130.56-64a42.666667 42.666667 0 1 1 37.546667-76.8L938.666667 525.653333v-436.053333l-276.48-130.56-279.893334 139.093333a60.586667 60.586667 0 0 1-52.906666 0L85.333333-20.48V448l92.16 43.52c21.333333 10.24 30.72 35.84 20.48 57.173333a42.496 42.496 0 0 1-56.32 20.48l-106.666666-50.346666c-21.333333-10.24-34.986667-31.573333-34.986667-54.613334v-523.946666c0-21.333333 10.24-40.106667 28.16-51.2 17.92-11.093333 39.253333-11.946667 58.88-3.413334l268.8 130.56 279.893333-137.386666c7.68-5.12 17.066667-6.826667 26.453334-6.826667 8.533333 0 17.92 1.706667 25.6 5.973333l301.226666 141.653334c21.333333 9.386667 34.986667 31.573333 34.986667 54.613333V565.76c0 20.48-10.24 40.106667-28.16 51.2zM512 203.946667c28.16 0 54.613333 14.506667 70.826667 38.4C667.306667 372.906667 768 547.84 768 640c0 140.8-115.2 256-256 256S256 780.8 256 640c0-92.16 100.693333-267.093333 185.173333-397.653333 16.213333-23.893333 42.666667-38.4 70.826667-38.4zM512 810.666667c93.866667 0 170.666667-76.8 170.666667-170.666667 0-52.906667-65.706667-187.733333-169.813334-351.573333C407.04 452.266667 341.333333 586.24 341.333333 640c0 93.866667 76.8 170.666667 170.666667 170.666667z"  horiz-adv-x="1024" />

    
    <glyph glyph-name="dingwei" unicode="&#58901;" d="M512 673.413564c-74.807835 0-135.52144-59.810129-135.52144-133.594024s60.683489-133.594024 135.52144-133.594024 135.551556 59.780013 135.551556 133.594024C647.551556 613.603435 586.777719 673.413564 512 673.413564M512 896C312.422093 896 150.609494 746.8963 150.609494 562.918417c-0.030116-184.008 361.390506-690.918417 361.390506-690.918417s361.390506 506.910417 361.390506 690.918417C873.360391 746.836068 711.577907 896 512 896M510.945944 320.997588c-119.770837 0-228.940886 120.885124-228.940886 234.000353 0 113.145344 110.224104 212.979472 229.964826 212.979472S740.880654 667.028998 740.880654 553.91377C740.940886 440.888889 630.746897 320.997588 510.945944 320.997588"  horiz-adv-x="1024" />

    
    <glyph glyph-name="quyuguanli" unicode="&#58983;" d="M556.544 7.68c-8.192-19.968-31.744-29.696-51.712-21.504L47.104 176.64c-19.968 8.192-29.696 31.744-21.504 51.712 8.192 19.968 31.744 29.696 51.712 21.504l457.728-189.952c19.968-8.704 29.696-31.744 21.504-52.224zM483.84 8.192c8.192-19.968 31.744-29.696 51.712-21.504l441.856 183.808c19.968 8.192 29.696 31.744 21.504 51.712-8.192 19.968-31.744 29.696-51.712 21.504l-441.856-183.808c-20.48-8.704-29.696-31.744-21.504-51.712z m72.704 169.472c-8.192-19.968-31.744-29.696-51.712-21.504L47.104 346.624c-19.968 8.192-29.696 31.744-21.504 51.712s31.744 29.696 51.712 21.504l457.728-189.952c19.968-8.704 29.696-31.744 21.504-52.224zM483.84 178.176c8.192-19.968 31.744-29.696 51.712-21.504l441.856 183.808c19.968 8.192 29.696 31.744 21.504 51.712s-31.744 29.696-51.712 21.504l-441.856-183.808c-20.48-8.704-29.696-31.744-21.504-51.712z m515.584 394.24c-3.584 10.24-11.264 18.944-22.016 23.552l-457.728 189.952c-5.12 2.048-10.24 3.072-15.36 3.072s-10.752-1.024-15.36-3.072L47.616 602.624c-11.776-4.608-19.968-14.848-23.04-26.112v-0.512c-5.12-18.944 4.096-39.424 23.04-47.104l457.728-189.952c10.24-4.096 20.992-4.096 30.72 0L977.92 522.752c18.944 7.68 28.672 29.696 21.504 49.664z"  horiz-adv-x="1024" />

    
    <glyph glyph-name="bofang" unicode="&#58933;" d="M261.6 795.2L844 464.8c60-34.4 60-119.2 0-153.6L261.6-19.2c-60-34.4-135.2 8.8-135.2 76.8V718.4c0.8 68 75.2 111.2 135.2 76.8z m0 0"  horiz-adv-x="1024" />

    
    <glyph glyph-name="zantingtingzhi" unicode="&#58948;" d="M720.896 800.768c-47.616 0-89.6-41.472-89.6-89.088v-655.36c0-47.616 41.984-89.088 89.6-89.088s89.6 41.472 89.6 89.088V711.68c-0.512 47.616-41.984 89.088-89.6 89.088z m-417.792 0c-47.616 0-89.6-41.472-89.6-89.088v-655.36c0-47.616 41.984-89.088 89.6-89.088s89.6 41.472 89.6 89.088V711.68c0 47.616-41.984 89.088-89.6 89.088z"  horiz-adv-x="1024" />

    
    <glyph glyph-name="zuo2" unicode="&#58929;" d="M512-128c282.784 0 512 229.216 512 512S794.784 896 512 896 0 666.784 0 384s229.216-512 512-512z m130.816 256a29.536 29.536 0 0 0-18.304 6.4l-282.976 227.488a29.184 29.184 0 0 0 0 45.44l281.76 226.24a29.184 29.184 0 0 0 36.544-45.44l-253.44-203.52 254.72-204.768a29.12 29.12 0 0 0-18.304-51.84z"  horiz-adv-x="1024" />

    
    <glyph glyph-name="you3" unicode="&#59011;" d="M512-128c282.770286 0 512 229.229714 512 512S794.770286 896 512 896 0 666.770286 0 384s229.229714-512 512-512zM379.337143 128h-0.022857c-5.414857-0.042286-10.665143 1.808-14.792 5.214857-3.876571 3.099429-6.122286 7.721143-6.122286 12.6 0 4.877714 2.245714 9.501714 6.122286 12.597714l250.500571 212.793143-250.500571 212.790857c-3.876571 3.096-6.122286 7.72-6.122286 12.597715 0 4.88 2.245714 9.500571 6.122286 12.6 8.576 6.940571 21.030857 6.940571 29.608 0l265.36-225.403429c3.869714-3.096 6.109714-7.713143 6.109714-12.585143 0-4.872-2.24-9.491429-6.109714-12.587428L394.152 133.214857c-4.132571-3.411429-9.392-5.261714-14.814857-5.213714z"  horiz-adv-x="1024" />

    
    <glyph glyph-name="zengjia" unicode="&#59308;" d="M129.142 415.98h765.715v-63.96H129.142v63.96zM480.018 766.859h63.962v-765.716h-63.962V766.86z"  horiz-adv-x="1024" />

    
    <glyph glyph-name="jia" unicode="&#58978;" d="M825.6 422.4H544V697.6c0 19.2-12.8 32-32 32s-32-12.8-32-32V416H204.8c-25.6 0-38.4-12.8-38.4-32s12.8-32 32-32h275.2v-275.2c0-19.2 12.8-32 32-32s32 12.8 32 32V352h275.2c19.2 0 32 12.8 32 32s0 38.4-19.2 38.4zM512 896C230.4 896 0 665.6 0 384s230.4-512 512-512 512 230.4 512 512S793.6 896 512 896z m0-953.6C268.8-57.6 70.4 140.8 70.4 384 70.4 627.2 268.8 825.6 512 825.6c243.2 0 441.6-198.4 441.6-441.6 0-243.2-198.4-441.6-441.6-441.6z"  horiz-adv-x="1024" />

    
    <glyph glyph-name="jianshao" unicode="&#59098;" d="M230.4 418.133333h563.2a51.2 51.2 0 0 0 0-102.4h-563.2a51.2 51.2 0 0 0 0 102.4z"  horiz-adv-x="1024" />

    
    <glyph glyph-name="jianshao1" unicode="&#59269;" d="M512-64c247.424 0 448 200.576 448 448S759.424 832 512 832 64 631.424 64 384s200.576-448 448-448z m0 72c-207.66 0-376 168.34-376 376s168.34 376 376 376 376-168.34 376-376-168.34-376-376-376zM249 420m36 0l454 0q36 0 36-36l0 0q0-36-36-36l-454 0q-36 0-36 36l0 0q0 36 36 36Z"  horiz-adv-x="1024" />

    
    <glyph glyph-name="zengjia1" unicode="&#58937;" d="M128 426.666667m42.666667 0l682.666666 0q42.666667 0 42.666667-42.666667l0 0q0-42.666667-42.666667-42.666667l-682.666666 0q-42.666667 0-42.666667 42.666667l0 0q0 42.666667 42.666667 42.666667ZM554.666667 768m0-42.666667l0-682.666666q0-42.666667-42.666667-42.666667l0 0q-42.666667 0-42.666667 42.666667l0 682.666666q0 42.666667 42.666667 42.666667l0 0q42.666667 0 42.666667-42.666667Z"  horiz-adv-x="1024" />

    
    <glyph glyph-name="zonglan" unicode="&#58899;" d="M477.184 418.816H237.568C107.008 418.816 0 525.824 0 658.432S107.008 896 237.568 896s237.568-107.008 237.568-239.616c-0.512 0 2.048-237.568 2.048-237.568z m309.248 0h-239.616V656.384c0 132.608 107.008 239.616 237.568 239.616S1024 788.992 1024 656.384s-107.008-237.568-237.568-237.568z m0-546.816c-130.56 0-237.568 107.008-237.568 239.616v237.568h237.568c130.56 0 237.568-107.008 237.568-239.616S916.992-128 786.432-128z m-548.864 0C107.008-128 0-20.992 0 111.616s107.008 239.616 237.568 239.616h237.568v-239.616c2.048-132.608-104.96-239.616-237.568-239.616z"  horiz-adv-x="1024" />

    
    <glyph glyph-name="qiehuanyou" unicode="&#59802;" d="M165.546667 410.453333H704l-71.68-71.68 45.226667-45.226666 135.68 135.68 45.226666 45.226666H165.546667v-64z"  horiz-adv-x="1024" />

    
    <glyph glyph-name="qiehuanzuo" unicode="&#59834;" d="M858.453333 357.546667H320l71.68 71.68-45.226667 45.226666-135.68-135.68-45.226666-45.226666h692.906666v64z"  horiz-adv-x="1024" />

    
    <glyph glyph-name="left" unicode="&#58898;" d="M278.34101562500007 405.8443359375l416.3282226562499 416.3282226562501c6.662988281249996 6.662988281250006 15.866894531249994 10.783300781250007 26.034082031249987 10.783300781250016 20.33349609375 1.9539925233402755e-14 36.817382812500014-16.483886718749975 36.81738281250003-36.81738281249998 9.769962616701378e-15-10.167187499999997-4.121191406249994-19.371093749999996-10.783300781249984-26.034082031250012l-394.49355468749974-394.49355468750025 381.8267578125003-381.8970703124998c6.077636718750004-6.285937499999996 9.82265625000001-14.860546874999994 9.822656250000017-24.308789062499986 7.105427357601002e-15-19.325390624999997-15.666503906249984-34.99189453125001-34.99189453124998-34.99189453125003-9.449121093749998-8.881784197001252e-15-18.0228515625 3.7450195312499917-24.318457031250002 9.831445312499998l-395.8839843750001 395.88398437499995c-4.787402343750004 4.872656249999997-8.140429687500008 11.169140624999994-9.367382812500013 18.19599609375 0.7593750000000039-4.898144531250001-0.2900390624999978-5.52919921875-0.9905273437499975-4.479785156250001-6.642773437500004 6.658593749999995-10.750781250000006 15.848437499999994-10.750781250000014 25.998925781249987-7.105427357601002e-15 10.149609375 4.108007812499988 19.34033203125 10.751660156249985 25.99892578125001z"  horiz-adv-x="1024" />

    
    <glyph glyph-name="policeman-a" unicode="&#59034;" d="M487.424 732.16l24.576 12.288 24.576-12.288-4.096 28.672 16.384 20.48-24.576 4.096-12.288 24.576-12.288-24.576-24.576-4.096 16.384-20.48-4.096-28.672zM270.336 642.048c0 0 0-24.576 0-24.576 0-40.96 110.592-73.728 241.664-73.728 135.168 0 241.664 32.768 241.664 73.728 0 0 0 20.48 0 20.48-53.248 16.384-147.456 28.672-253.952 28.672-90.112 0-176.128-8.192-229.376-24.576zM225.28 732.16c16.384-32.768 45.056-77.824 45.056-77.824v-4.096c57.344 12.288 139.264 20.48 233.472 20.48 106.496 0 196.608-12.288 253.952-28.672v16.384c0 0 28.672 45.056 45.056 77.824 8.192 16.384 12.288 36.864 16.384 49.152 0 12.288-8.192 20.48-20.48 28.672-40.96 16.384-135.168 57.344-172.032 73.728-8.192 4.096-24.576 8.192-36.864 8.192-28.672 0-77.824 0-77.824 0s-49.152 0-77.824 0c-12.288 0-28.672-4.096-36.864-8.192-36.864-16.384-131.072-57.344-172.032-73.728-12.288-8.192-20.48-16.384-20.48-28.672 4.096-16.384 12.288-32.768 20.48-53.248zM458.752 838.656c0 0 12.288-4.096 24.576-4.096s28.672 12.288 28.672 12.288 16.384-12.288 28.672-12.288c12.288 0 24.576 4.096 24.576 4.096l20.48-28.672c0 0-12.288-8.192-12.288-20.48 0-20.48 8.192-16.384 8.192-45.056 0-36.864-73.728-57.344-73.728-57.344s-73.728 16.384-73.728 57.344c4.096 28.672 16.384 24.576 16.384 45.056 0 8.192-12.288 20.48-12.288 20.48l20.48 28.672zM663.552 183.296c-24.576 12.288-45.056 24.576-45.056 32.768 0 12.288 0 57.344 0 57.344s126.976 102.4 126.976 274.432c0 0 0 0 0 0 0 0 0 0 0 0 0 0 0 0 0 0 0 0 0 0 0 0 0 8.192 0 16.384 0 24.576-28.672-32.768-122.88-53.248-233.472-53.248-110.592 0-200.704 24.576-233.472 53.248 0-8.192 0-16.384 0-24.576 0 0 0 0 0 0 0 0 0 0 0 0 0 0 0 0 0 0 0 0 0 0 0 0 0-172.032 126.976-274.432 126.976-274.432s0-45.056 0-57.344c0-12.288-24.576-24.576-45.056-32.768-258.048-45.056-303.104-184.32-303.104-208.896 12.288-94.208 385.024-102.4 446.464-102.4-12.288 32.768-32.768 98.304-32.768 188.416 0 32.768 40.96 32.768 40.96 32.768s40.96 0 40.96-32.768c0-90.112-20.48-155.648-32.768-188.416 57.344 0 438.272 8.192 446.464 102.4-0 24.576-45.056 163.84-303.104 208.896zM507.904 93.184c-24.576 0-45.056 20.48-45.056 40.96 0 24.576 20.48 40.96 45.056 40.96 24.576 0 45.056-20.48 45.056-40.96 0-20.48-20.48-40.96-45.056-40.96z"  horiz-adv-x="1024" />

    
    <glyph glyph-name="zuifanxinxi" unicode="&#58894;" d="M568.136531 626.757616c-1.929108 0.058026-2.807641 2.701769-4.716389 2.0757 0.004072-0.691221 0.008144-1.383461 0.01018-2.0757h4.706209zM710.690989 616.527745l-6.871493 4.663453a92.331482 92.331482 0 0 1-6.880654 4.269487c14.70703 78.142613 11.40057 128.737158-36.431127 173.901698-70.217492 51.450682-229.11694 53.455122-298.41925-3.309515-35.533251-40.455276-38.449818-75.83481-30.722189-171.549102a72.910099 72.910099 0 0 1-5.26509-3.31155l-6.882691-4.617643-0.099764-8.281421c-0.401092-24.340354 2.580627-44.912075 9.132468-60.576024 5.978708-14.35073 14.858712-24.936901 26.705165-31.117173 7.17282-25.591474 15.411485-49.836136 26.955593-70.668465 13.451837-24.389218 31.2149-43.9633 56.513191-55.606154 11.733455-5.421862 41.350097-8.333339 70.857813-8.784312 30.561345-0.450974 62.339198 1.65832 74.779145 6.226081 27.808676 10.287897 47.481505 29.45478 62.38908 54.349943 12.950982 21.632477 22.082432 47.381741 29.860962 75.187363 11.44129 6.420519 19.9823 17.056572 25.749264 31.315682 6.277999 15.557059 9.133486 35.784697 8.760898 59.673059l-0.131321 8.234593z m-38.248255-56.012335c-3.50497-8.779222-8.448373-14.553312-14.79865-16.816324l-8.025903-2.805605-2.161212-8.078839c-7.58511-28.256595-16.214686-54.001787-28.351269-74.32919-11.301824-18.876754-25.852082-33.276348-46.035946-40.75864-8.977732-3.303406-36.185789-4.763217-63.434565-4.365179-25.63932 0.40211-50.183274 2.408585-57.870184 5.922718-18.314818 8.431067-31.567128 23.283671-41.904906 42.006706-11.141998 20.12482-19.066101 44.874409-26.150356 71.117403l-2.310857 8.485021-8.430049 2.611167c-6.571183 2.056358-11.644889 7.726612-15.250642 16.410142-4.119842 9.885787-6.350277 23.088215-6.732026 38.997502 1.305075 0.600619 2.609131 1.156447 3.917259 1.554484 2.913513 0.956919 5.726244 1.310165 8.379149 1.056683l14.455585-1.40891 2.715003 14.354802c3.256578 17.318197 8.900364 33.678457 16.453916 48.637951 24.345444-2.412657 54.103587 21.027785 74.439133 9.583442 52.845341-29.712334 119.69631-22.031532 164.58599-13.25231a180.733488 180.733488 0 0 0 14.637806-44.920219l2.602005-13.852929 14.056529 0.903983c2.612185 0.148628 5.374016-0.298274 8.179621-1.25112 1.154411-0.357318 2.360739-0.850029 3.53551-1.404839-0.370552-15.608977-2.531763-28.610859-6.500941-38.3979zM840.246618 238.476549l-200.622132 92.592089h-8.569515L514.963395 221.327339 389.289395 331.068638s-144.030556-63.443727-193.751658-82.309282c-49.721102-18.859448-30.861655-104.592261-30.861655-104.592261l77.159227-224.617385h555.54643s42.868952 150.884742 65.154983 221.188765c22.277888 70.301986-22.290104 97.738074-22.290104 97.738074z m-70.658285-262.337298H260.339475v190.325074h509.248858v-190.325074zM327.377756 54.169885V75.706669h38.247237v-44.135342c-7.324502-6.454113-13.798975-10.847796-19.424437-13.176978-5.627498-2.330199-12.303535-3.490718-20.025057-3.490718-9.507092 0-17.254063 2.088934-23.247022 6.284107-5.993978 4.190083-10.635034 10.428381-13.928261 18.718964-3.300352 8.282439-4.948493 17.798693-4.948493 28.530437 0 11.291644 1.802876 21.123477 5.408628 29.488374 3.607788 8.352681 8.886112 14.697868 15.843117 19.033525 5.431024 3.337 12.729058 5.011609 21.91039 5.011609 8.8515 0 15.469511-1.036323 19.858105-3.108969 4.390629-2.072646 8.033029-5.284432 10.925164-9.641467 2.900279-4.356017 5.074724-9.873571 6.531481-16.56386l-23.876146-5.513482c-0.984405 3.909116-2.648833 6.896943-4.998375 8.977732-2.351577 2.068574-5.345512 3.108969-8.985876 3.108969-5.431024 0-9.756501-2.437089-12.976432-7.307196-3.226039-4.879269-4.839567-12.592646-4.839567-23.134025 0-11.209186 1.634906-19.208621 4.894539-24.012558 3.256578-4.800883 7.801944-7.204378 13.629987-7.204378a20.563578 20.563578 0 0 1 7.920032 1.554484c2.517511 1.032251 5.390304 2.801533 8.634666 5.292576v9.749376h-16.55368v0.002036zM432.44135 120.204419h24.694617v-61.687679c0-6.114101-0.731941-11.892263-2.211093-17.326341-1.477116-5.43815-3.786956-10.189151-6.937663-14.259111-3.155797-4.065888-6.460221-6.926464-9.917345-8.572569-4.813099-2.30475-10.583117-3.457124-17.320233-3.457124-3.8969 0-8.151117 0.352228-12.75858 1.056683-4.606445 0.708527-8.456517 2.10115-11.55327 4.203317-3.094717 2.088934-5.92679 5.073707-8.493165 8.928869-2.573501 3.855162-4.325477 7.82943-5.27527 11.921785-1.526998 6.590525-2.296606 12.426713-2.296605 17.503473V120.203401h24.695635v-63.154616c0-5.644804 1.209383-10.055793 3.635274-13.235003 2.421819-3.170049 5.783252-4.758127 10.076153-4.758127 4.266433 0 7.606488 1.562628 10.028307 4.686867 2.420801 3.138491 3.631202 7.565768 3.631202 13.310335v63.149526h0.002036zM474.514227 120.204419h24.803543v-103.535578h-24.803543V120.204419zM517.068617 120.204419h24.752643v-78.038777h38.628986v-25.496801h-63.380611V120.204419h-0.001018zM580.393238 120.204419h75.235208v-25.561952H630.386146v-77.973626h-24.750607v77.973626h-25.242301v25.561952zM658.743523 120.204419h27.494114l16.136301-34.926524 16.169894 34.926524h27.340396l-31.137532-60.168825v-43.366753h-24.804561v43.366753l-31.198612 60.168825zM853.476532 242.285901h119.301327v30.864708H793.481785M224.21782 273.150609H57.155039v-30.864708h106.650654M409.853991 393.464845H57.155039v-30.863691h375.513325M599.724019 362.601154h373.05384V393.464845H621.564167M676.883245 482.919462h295.894614v30.864708h-287.320009M340.814324 513.78417H57.155039v-30.864708h295.660474M724.880875 603.234715h247.896984v30.863691H711.592936M311.663925 634.098406H57.155039v-30.863691h247.651646M714.609266 723.554041h258.168593v30.859618H709.463282M320.23853 754.413659H57.155039v-30.859618h259.650799M866.346074 121.970647h106.431785v30.863691h-96.994935M153.918888 152.834338H57.155039v-30.863691h101.908816M831.201698 1.655393h141.576161v30.864709h-129.5709M193.351075 32.520102H57.155039v-30.864709H203.641008"  horiz-adv-x="1024" />

    
    <glyph glyph-name="hangzhengzhifa" unicode="&#58896;" d="M506.34-35.867c-28.649 0-83.25 12.526-135.436 40.02-43.516 22.924-100.543 64.177-125.096 130.464l-0.962 2.604-2.677 0.731c-25.661 6.998-51.742 21.758-71.553 40.498-15.681 14.834-34.375 38.809-34.375 68.778 0 47.712 25.512 87.036 64.997 100.202l3.689 1.225v8.47c0 6.93 3.177 10.105 7.577 14.498l1.583 1.581v2.235c0 8.767 0 17.045 4.009 25.063l0.571 1.138v8.09l-1.581 1.579c-1.999 1.998-4.461 4.461-6.024 6.598 22.252 7.193 118.575 34.563 295.274 34.563s273.019-27.37 295.276-34.564c-1.563-2.138-4.024-4.599-6.021-6.596l3.024-9.208c0.155-2.472 0.969-5.251 1.896-8.421 1.242-4.251 2.654-9.065 2.654-13.66v-2.233l1.581-1.579c4.403-4.404 7.573-7.581 7.573-14.505v-8.465l3.692-1.229c40.859-13.618 64.582-54.57 60.439-104.333l-0.019-0.22v-0.228c0-21.674-12.23-45.512-34.428-67.111-20.27-19.722-46.995-35.481-71.494-42.165l-2.679-0.731-0.959-2.604c-24.556-66.287-81.582-107.54-125.102-130.464-52.184-27.495-106.786-40.021-135.429-40.021zM299.695 167.811c28.792-105.119 170.211-150.355 211.225-150.355 23.744 0 69.418 11.824 110.772 34.433 37.356 20.425 85.118 57.146 100.506 116.133l0.173 0.667v0.695c0 10.306 10.964 17.501 26.67 17.501 14.514 0 43.487 15.87 57.69 35.583 7.506 10.412 9.991 20.822 7.218 30.179-0.179 14.555-5.025 24.249-9.718 33.624l-3.348 6.697-5.291-5.291c-3.765-3.764-11.526-7.579-19.077-7.579-15.716 0-26.666 11.637-26.666 22.08v27.475c0 9.466 0 23.769-4.856 38.339l-2.101 6.301-5.733-3.347c-48.727-28.424-134.951-58.8-230.818-58.8-98.5 0-187.088 36.945-231.125 58.964l-7.807 3.904v-8.729c0-3.627-0.902-8.538-1.857-13.737-1.277-6.957-2.725-14.842-2.725-22.896v-27.475c0-10.443-10.946-22.08-26.654-22.08-7.556 0-15.318 3.811-19.082 7.579l-5.292 5.291-3.347-6.697c-4.783-9.557-9.73-19.448-9.73-34.465 0-18.41 19.658-35.72 31.376-44.399 15.795-11.7 34.153-20.521 42.706-20.521 11.847-0.001 23.133-8.014 26.891-19.074zM177.013 478.24c-3.44 26.903-26.49 59.604-47.013 88.719-8.621 12.231-16.764 23.783-21.99 33.022-6.933 12.259-5.902 15.544-5.628 16.077 0.227 0.438 1.681 1.263 5.571 1.263 186.482 0 262.804 64.079 318.534 110.868 29.83 25.044 53.391 44.826 84.434 44.826 32.25 0 59.853-20.965 94.8-47.509 60.111-45.657 142.434-108.184 308.167-108.184 2.805 0 4.221-0.35 4.847-0.581-0.246-1.25-1.658-5.002-9.297-13.854-6.679-7.746-16.263-17.312-26.405-27.438-30.015-29.969-66.781-66.675-70.499-96.585-10.188 2.954-31.741 8.507-66.064 14.094-45.112 7.341-121.798 16.094-230.974 16.094-183.61 0-309.755-24.635-338.483-30.812z m250.666 116.999c0-15.288 13.958-31.659 41.483-48.662 19.61-12.111 38.893-20.097 39.703-20.432l2.054-0.846 2.053 0.846c0.813 0.333 20.092 8.321 39.699 20.432 27.529 17.003 41.481 33.375 41.481 48.662v5.396h0.427v64.11h-166.9v-69.506z m-31.241-406.724c-13.045 0-25.816 5.29-35.04 14.51-9.226 9.228-14.519 22.001-14.519 35.044 0 13.038 5.293 25.811 14.519 35.044 9.226 9.22 21.997 14.51 35.04 14.51 13.047 0 25.82-5.29 35.044-14.51 9.221-9.229 14.512-22.002 14.512-35.044 0-13.043-5.291-25.816-14.512-35.044-9.224-9.22-21.998-14.51-35.044-14.51z m242.696 0c-13.048 0-25.816 5.29-35.04 14.51-9.224 9.228-14.514 22.001-14.514 35.044 0 13.042 5.29 25.815 14.514 35.044 9.224 9.22 21.998 14.51 35.04 14.51 13.048 0 25.82-5.29 35.04-14.51 9.228-9.233 14.518-22.002 14.518-35.044 0-13.043-5.29-25.816-14.518-35.044-9.22-9.22-21.992-14.51-35.04-14.51z"  horiz-adv-x="1024" />

    
    <glyph glyph-name="jyjc" unicode="&#58911;" d="M512.8 320c-128 0-383.2-64-383.2-192v-96c0-17.6 14.4-32 32-32h191.2V160h320v-160h192c17.6 0 32 14.4 32 32v96.8C896 256 640.8 320 512.8 320zM832 64H704V176c0 8.8-7.2 16-16 16H336c-8.8 0-16-7.2-16-16v-112H192.8v64.8c0 26.4 40 58.4 103.2 84 75.2 29.6 162.4 43.2 216 43.2 53.6 0 140.8-13.6 216-43.2 64-25.6 103.2-57.6 103.2-84l0.8-64.8z m-256 32h64v-32h-64v32z m-64-64h128v-32H512v32z m0 800c-101.6 0-187.2-67.2-214.4-160H192v-32h98.4c-1.6-10.4-2.4-20.8-2.4-32 0-124 100-224 224-224s224 100 224 224S636 832 512 832z m0-64c63.2 0 116.8-36.8 143.2-89.6C622.4 691.2 574.4 704 512 704c-60 0-108-11.2-142.4-23.2C396 732 449.6 768 512 768z m0-320c-88 0-160 72-160 160 0 11.2 0.8 21.6 3.2 32 30.4 13.6 84 32 156.8 32 78.4 0 132-21.6 156.8-34.4 1.6-9.6 3.2-19.2 3.2-29.6 0-88-72-160-160-160z"  horiz-adv-x="1024" />

    
    <glyph glyph-name="mc-hjxz" unicode="&#59063;" d="M605.6 328.20000000000005c11.3 0 22.5 2 33.1 5.9 30.5 11.3 63.2 26.2 85.7 39.7h-0.1c29.1 18 53.9 42.3 72.5 71.3 23.9 37.1 36.5 80.1 36.5 124.4 0 126.7-102.2 229.9-227.9 229.9S377.5 696.3 377.5 569.5c0-44.3 12.6-87.3 36.5-124.4 18.7-29 43.5-53.4 72.5-71.3-77.2-25.2-141-76.6-185.8-149.8-38.3-62.7-61.3-139.8-66-220-0.3-5.7 3.2-34.2 30.4-34.2 27.8 0 32.9 27.2 33.2 32.2 10.3 162.1 107.3 326 307 326h0.3zM441.3 569.7c0 91.4 73.7 165.8 164.2 165.8 90.6 0 164.2-74.4 164.2-165.8S696 404 605.5 404c-90.6 0-164.2 74.3-164.2 165.7zM339.8 401.3c2.2 14.5-5.5 28.6-18.9 34.4-4.1 1.8-100.6 44.8-93 145 3.6 47.3 27.1 83.1 69.7 106.4h0.1c5 2.7 7.6 8.4 6.4 14l-8.8 38.9c-1.8 8-10.6 12.2-17.9 8.6-53.6-26.5-106.5-76.7-113.1-163.1-6.2-81.5 35.8-136.9 68.9-167.3-34-14.1-76.3-38.7-110-80.8-45.1-56.5-64.6-131-58-221.5 1.2-16.7 15.1-29.7 31.7-29.7 0.7 0 1.6 0 2.6 0.1 17.4 1.4 30.5 16.8 29.2 34.3-7.1 96.5 20.5 168.2 81.9 213.3 47.7 34.9 98.5 40.2 100.7 40.4 14.5 1.4 26.2 12.5 28.5 27zM950.3 148.5c-26 30.1-119.8 128.4-234.8 128.4-115 0-208.8-98.2-234.8-128.4-12.3-14.2-12.3-35.6 0-49.8 26-30.1 119.8-128.4 234.8-128.4 115 0 208.8 98.2 234.8 128.4 12.3 14.2 12.3 35.6 0 49.8zM715.5 24.399999999999977c-81.9 0-154 66.5-184.6 99.3 30.5 32.8 102.6 99.3 184.6 99.3s154-66.5 184.6-99.3c-30.5-32.8-102.7-99.3-184.6-99.3z m193.9 88.8zM715.5 123.60000000000002m-35.5 0a35.5 35.5 0 1 1 71 0 35.5 35.5 0 1 1-71 0Z"  horiz-adv-x="1024" />

    
    <glyph glyph-name="jingcha" unicode="&#58930;" d="M724.256681 570.629447c7.778043-53.710979 9.047149-89.714383 7.473021-113.849192 12.375149-5.321532 15.801191-31.575149 7.712681-58.88-8.192-27.778723-25.20783-46.336-37.860766-41.36851a12.658383 12.658383 0 0 0-3.524085 2.069787c-27.560851-80.541957-100.194043-138.114723-185.376681-138.114723-85.830809 0-158.932426 58.466043-186.003064 139.972085a13.753191 13.753191 0 0 0-5.566638-4.172256c-12.658383-4.967489-29.674213 13.834894-37.866213 41.973107-8.192 28.149106-4.575319 54.958298 8.192 59.931234 2.026213 0.78434 4.194043 0.996766 6.312851 0.626383-5.054638 37.621106-3.148255 69.054638 3.17549 103.979574 20.414638-24.314553 52.942979-53.803574 94.681872-61.058723 73.956766-12.854468 192.925957-22.037787 249.191489 3.671149 29.069617 13.284766 58.144681 41.270468 79.458043 65.220085zM517.544851 445.134979h-4.651574C359.271489 447.106723 252.993362 588.342468 234.762894 670.120851c-25.698043 115.368851 53.160851 60.721021 119.306893 87.693617C415.188426 782.809872 453.664681 891.081532 512.898723 895.030468V895.106723c0.490213 0.081702 0.915064 0.081702 1.28 0.081703h2.086128c0.490213 0 0.849702-0.081702 1.28-0.081703v-0.076255c59.228596-3.948936 97.710298-112.220596 158.828936-137.139745 66.140596-27.048851 144.999489 27.680681 119.306894-87.769872-17.865532-79.970043-120.243745-217.169702-268.876255-224.691745-3.066553-0.152511-6.154894-0.250553-9.259575-0.294127z m185.028085 130.510978H324.150468v-23.04h378.422468v23.04zM557.497191 744.034043c5.381447 14.946043 10.403404 25.850553 0.424852 19.543148 0 0-31.199319-13.856681-43.432852 17.277277-12.238979-31.133957-43.443745-17.277277-43.443744-17.277277-9.96766 6.307404-4.956596-4.597106 0.430298-19.543148 5.381447-14.940596 3.121021-14.395915-3.611234-52.381958-6.852085-37.986043 18.050723-50.67166 34.325787-55.808 4.036085-12.146383 12.233532-12.146383 12.233532-12.146383s8.197447 0 12.233532 12.146383c16.280511 5.13634 41.177872 17.821957 34.325787 55.808-6.666894 38.062298-8.932766 37.523064-3.485958 52.381958z m-159.210212-558.341447l32.626383-100.657022-24.494298-36.204936 77.028766-174.036425c-451.458723 0.980426-404.899404 107.193191-404.899404 107.193191 53.89617 154.297191 290.712511 185.785191 293.980595 185.785192 1.922723 0 15.185702 9.836936 25.763405 17.92z m221.685106-3.159149c14.161702-9.068936 40.006809-17.909106 40.006809-17.909107 274.382979-42.51234 287.449872-196.804085 287.449872-196.804085-34.097021-86.28834-332.734638-92.742809-409.817872-92.960681l74.594042 173.971064-35.131915 37.784511 42.899064 95.918298z m-221.581617 3.235404c7.325957 5.604766 13.333787 10.348936 13.333787 10.348936l1.634043 55.099915 199.255149 1.574128-1.634043-59.827745c-0.413957-2.83234 2.598128-6.062298 7.315064-9.319489l-110.613787-26.60766-109.290213 28.731915z m108.097362-313.409362s27.669787 72.82383 31.275574 175.882894c0 0-39.69634 37.098213-57.741617-6.868426 0 0-7.217021-85.193532 26.466043-169.014468z m2.080681 276.926639c18.922213 0 34.282213-15.392681 34.282212-34.353022 0-18.954894-15.36-34.353021-34.282212-34.353021-18.922213 0-34.28766 15.392681-34.28766 34.353021 0 18.954894 15.36 34.353021 34.28766 34.353022z"  horiz-adv-x="1024" />

    
    <glyph glyph-name="jingcha1" unicode="&#59070;" d="M105.9-63.3c5.5 79.7 16.6 187.3 41.1 286.1 5.1 25.5 23.2 46.9 23.8 47.7 2.3 15.1 187.9 15.2 187.9 15.2l30.7 2.9c-4.4-27.2-7.7-68.5 4-104 15.2-46.6 39.4-92.8 72.3-120.3l7 123.7H536l10.9-116c23 32.9 49.8 84.7 52.6 150.7 2.2 51.6 15.1 75.2 26.2 86.1 76.9-3.1 173.3-17.2 212-38.4 36.9-20.2 48.5-146.4 81.9-333.8H105.9v0.1zM528.1 205.8h-39.7l-31.8 26.6 47.7 62 47.6-53.2-23.8-35.4z m210.7 526.8c-19 38-129.4 95-249.8 98.9-120.4 4-247.9-65.9-246.9-117 1-51 64.2-73 64.2-73-3.3-9.9-1.6-48.3-1.6-48.3s2.9-5.3 8.4-12.7C294.5 335.2 509 331 509 331c185.9 19.3 171.1 221.2 169.3 250.4-0.7 10.7-2 19.2-3.6 26.8 2.3 16.5-4.1 33.5-4.1 33.5 27.1 10.9 87.3 52.9 68.2 90.9z m-280.2 19.1c-0.2 1.6-0.5 3.2-0.5 4.9 0 20.7 18.2 37.5 40.7 37.5 22.5 0 40.7-16.8 40.7-37.5 0-2.6-0.3-5.2-0.9-7.7 12.1 1.1 25.2 2.1 37.1 2.3 0 0-33.9-15.8-53.2-25.1-2.9-1.9-6-3.4-9.4-4.6-0.2-0.1-0.5-0.3-0.8-0.4 0 0-1.1-0.3-2.9-0.6-3.4-0.9-7-1.5-10.7-1.5-0.7 0-1.4 0.2-2.1 0.2-9 0-20.4 1.8-29.6 9.5 0 0-13.9 9.5-45.3 22.6 0.1 0 16.8 2.1 36.9 0.4z m181.3-107.8H332v36.4h307.9v-36.4z"  horiz-adv-x="1024" />

    
    <glyph glyph-name="jingbaobaojing" unicode="&#59036;" d="M510.31 621.722a204.032 204.032 0 0 1-203.827-203.776v-183.757a92.16 92.16 0 0 1 92.16-92.16h223.283a92.16 92.16 0 0 1 92.16 92.16V417.946A204.032 204.032 0 0 1 510.31 621.722z m-44.39-344.73a30.72 30.72 0 0 0-61.44 0v97.894a30.72 30.72 0 0 0 61.44 0z m377.19-223.744a71.936 71.936 0 0 0-71.68-71.68H249.344a71.68 71.68 0 0 0 0 143.667h521.933a71.68 71.68 0 0 0 71.833-71.987z m-332.8 603.443a30.72 30.72 0 0 0-30.72 30.72v65.741a30.72 30.72 0 1 0 61.44 0v-65.74a30.72 30.72 0 0 0-30.72-30.72z m225.024-129.894a30.72 30.72 0 0 0-15.36 57.293l56.884 32.87a30.72 30.72 0 1 0 30.72-53.197l-56.884-32.87a30.976 30.976 0 0 0-15.36-4.096z m-450.099 0a30.157 30.157 0 0 0-15.36 4.096l-56.883 32.87a30.72 30.72 0 0 0 30.72 53.197l56.934-32.87a30.72 30.72 0 0 0-15.36-57.293z"  horiz-adv-x="1024" />

    
    <glyph glyph-name="svg" unicode="&#58897;" d="M68.266667 380.586667l143.36-13.653334v-170.666666l226.986666 56.32V315.733333h-27.306666v78.506667l-129.706667 20.48-75.093333 69.973333 23.893333 148.48 442.026667-69.973333c3.413333 11.946667 6.826667 22.186667 11.946666 30.72l-494.933333 78.506667 80.213333 141.653333L324.266667 834.56 785.066667 759.466667l44.373333-6.826667 49.493333-8.533333 76.8-11.946667-3.413333-69.973333-85.333333-93.866667-39.253334 5.12 18.773334 116.053333 71.68-11.946666 1.706666 25.6-104.106666 17.066666-6.826667-1.706666-73.386667-88.746667c23.893333-8.533333 34.133333-54.613333 27.306667-105.813333-8.533333-54.613333-37.546667-97.28-64.853333-92.16-11.946667 1.706667-22.186667 13.653333-29.013334 32.426666l-5.12-46.08 73.386667-78.506666L546.133333 370.346667V315.733333h-25.6v-112.64l-307.2-76.8v-163.84L68.266667-61.44V380.586667z m653.653333 194.56c-11.946667 1.706667-23.893333-15.36-27.306667-40.96-3.413333-23.893333 1.706667-44.373333 13.653334-46.08 11.946667-1.706667 23.893333 15.36 27.306666 40.96 3.413333 22.186667-1.706667 44.373333-13.653333 46.08z m-3.413333-215.04l25.6-23.893334 85.333333 52.906667 25.6 158.72-34.133333 5.12-23.893334-143.36c1.706667 1.706667-78.506667-49.493333-78.506666-49.493333z"  horiz-adv-x="1024" />

    
    <glyph glyph-name="jiandao" unicode="&#58962;" d="M522.447396 361.093831a20.3 20.3 0 1 1 30.322936 26.997769 20.3 20.3 0 1 1-30.322936-26.997769ZM528.1-93.6c84.6-10.4 181.3 18.9 205.6 216.4 11.9 96.4-48.4 181.5-123.6 193.2-1.9 0.3-3.2 2-3 3.9l7.9 64.5c2.1 17.1-10 32.6-27.1 34.7l-72.5 8.9c-4.7 0.6-9-2.8-9.6-7.5l-11.1-90.2-2.4-19.6-39.5-320.8c-5.2-44-14.6-72.5 75.3-83.5z m1.2 141.8l21.6 175.4c0.4 3 3.1 5.2 6.2 4.8l36.7-4.5c38.5-4.7 69.9-48.4 62.6-107.6-11.6-94.2-48.9-129.1-91.2-123.9-45 5.6-38.6 33.9-35.9 55.8zM593.3 404.6L647.2 843c0.7 5.6-4.6 9.9-10 8.2-23.7-7.8-76.6-29.7-81.6-70.4-6.5-52.6-45-365.9-45-365.9l82.7-10.3zM590.8 812.2l-48.3-387.7-17 2.1 43 348.2c0-0.1-0.6 20.8 22.3 37.4zM627.3 828.2l-49.6-403.6-47 5.8 42.8 348.1c3 24.2 33 40.9 53.8 49.7m12.4 23.3c-0.8 0-1.6-0.1-2.4-0.4-23.7-7.8-76.6-29.7-81.6-70.4-6.5-52.6-45-365.9-45-365.9l82.7-10.2L647.2 843c0.6 4.7-3.1 8.5-7.5 8.5zM522.6 408.9l63.2-7.8c3.5-0.4 6.6-2.2 8.8-5 2.2-2.8 3.1-6.2 2.7-9.7l-7.9-64.5c-1.4-11.6 6.5-22 18-23.8 31.6-4.9 61.5-25.7 82.2-57 22.1-33.4 31.4-74.7 26.3-116.3-16.8-136.1-68.9-202.3-159.3-202.3-8.4 0-17.2 0.6-26.3 1.7-40.4 5-54.4 13.2-59 19.2-5.1 6.6-4 17.7-1.5 36.6 0.3 2.5 0.7 5 1 7.7l39.5 320.8 2.4 19.6 9.9 80.8M573.2-26c31.3 0 86 18.2 101 140.2 8.9 72.7-32.8 122-78.3 127.6l-36.7 4.5c-1 0.1-1.9 0.2-2.9 0.2-11.8 0-21.9-8.9-23.3-20.6l-21.6-175.4c-0.1-1.2-0.3-2.4-0.5-3.6-1.9-14.6-4.5-34.7 8.2-51.2 9-11.6 23.3-18.5 43.7-21 3.6-0.5 7.1-0.7 10.4-0.7m-58.8 453.9c-4.3 0-8-3.2-8.5-7.5l-11.1-90.2-2.4-19.6-39.5-320.8c-5.4-43.8-14.8-72.3 75.2-83.4 9.4-1.2 18.9-1.8 28.5-1.8 76.6 0 155.5 42.6 177.1 218.2 11.9 96.4-48.4 181.5-123.6 193.2-1.9 0.3-3.2 2-3 3.9l7.9 64.5c2.1 17.1-10 32.6-27.1 34.7l-72.5 8.9c-0.3-0.1-0.6-0.1-1-0.1z m58.8-436c-2.7 0-5.3 0.2-8 0.5-45 5.5-38.5 33.8-35.9 55.8l21.6 175.4c0.3 2.8 2.7 4.9 5.5 4.9h0.7l36.7-4.5c38.5-4.7 69.9-48.4 62.6-107.6-10.9-88.2-44.3-124.5-83.2-124.5zM285.4 75.2l241.4 214.9 14.7 13.1 67.9 60.5c3.5 3.1 3.9 8.6 0.7 12.1l-48.5 54.5c-11.4 12.9-31.1 14-44 2.6l-48.5-43.2c-1.4-1.3-3.6-1.1-4.9 0.2-52.4 55.2-156.6 56.4-229.2-8.2-148.5-132.3-117.6-228.5-61-292.2 60.3-67.6 78.4-43.7 111.4-14.3zM223.8 169c-28.3 31.8-20.8 82.4 50 145.5 44.5 39.6 98.3 38.6 124.1 9.7l24.6-27.6c2-2.3 1.8-5.8-0.5-7.8L290 171.2c-16.5-14.7-36.1-36.1-66.2-2.2zM522.447396 361.093831a20.3 20.3 0 1 1 30.322936 26.997769 20.3 20.3 0 1 1-30.322936-26.997769ZM537.6 381.4c1.1 0 3.3-0.3 5.1-2.3 2.5-2.8 2.3-7.2-0.6-9.7-1.6-1.4-3.4-1.7-4.5-1.7s-3.3 0.3-5.1 2.3c-1.6 1.8-1.8 3.9-1.7 4.9 0.1 1.1 0.4 3.1 2.3 4.7 1.6 1.5 3.3 1.8 4.5 1.8m0 13.5c-4.8 0-9.6-1.7-13.5-5.1-8.4-7.5-9.1-20.3-1.7-28.7 4-4.5 9.6-6.8 15.2-6.8 4.8 0 9.6 1.7 13.5 5.1 8.4 7.5 9.1 20.3 1.7 28.7-4 4.5-9.6 6.8-15.2 6.8zM546.8 426.6l329.8 293.7c4.2 3.7 10.8 1.8 12.4-3.5 7-24 19.1-79.9-11.5-107.2-39.6-35.3-275.4-245.2-275.4-245.2l-55.3 62.2zM883.4 656.3L592 396.1l11.4-12.8 261.9 233.4c-0.1 0 17.5 11.3 18.1 39.6zM875.8 695.5c4.6-22.1 7.9-56.4-10.2-72.5l-262-233.2-31.5 35.4 303.7 270.3m5.9 26.7c-1.8 0-3.6-0.6-5.1-1.9L546.8 426.6l55.4-62.2S838 574.3 877.6 609.6c30.6 27.3 18.5 83.2 11.5 107.2-1.1 3.4-4.2 5.4-7.4 5.4zM538.3 422.8c3.8 0 7.3-1.6 9.9-4.4l42.3-47.5-60.9-54.2-14.7-13.1-241.4-215c-2-1.7-3.9-3.5-5.7-5.2-13.4-12.1-22.1-19.6-30.1-19.6-7.6 0-22.4 6.5-50.1 37.7-31.1 34.9-44.8 69.9-42 107 3.8 49.5 38 103.2 101.5 159.8 32.3 28.7 72.7 44.5 113.9 44.5 36.1 0 69-12.9 90.3-35.3 4-4.3 9.7-6.7 15.6-6.7 5.2 0 10.3 1.9 14.2 5.4l48.5 43.2c3 2.8 6.4 3.4 8.7 3.4M254.9 133c19.6 0 33.9 12.9 44.4 22.4 0.9 0.8 1.8 1.7 2.7 2.5l132 117.5c4.7 4.2 7.5 9.9 7.8 16.2 0.4 6.3-1.7 12.3-5.9 17l-24.6 27.6c-15.5 17.4-38.3 27-64.2 27-29.5 0-59.7-12.5-85.2-35.2-102.5-91.4-70.2-150-51.6-171 14.5-16.2 29-24 44.6-24m283.4 307.7c-7.4 0-14.8-2.6-20.7-7.9l-48.5-43.2c-0.7-0.6-1.5-0.9-2.3-0.9-0.9 0-1.9 0.4-2.6 1.1-25.4 26.8-63 40.9-103.3 40.9-42.7 0-88.5-15.8-125.8-49.1C86.5 249.4 117.4 153.2 174 89.5c28.7-32.2 47.8-43.7 63.5-43.7 17.3 0 30.5 13.9 47.8 29.3L526.7 290l14.7 13.1 67.9 60.5c3.5 3.1 3.9 8.6 0.7 12.1l-48.5 54.5c-6.1 7-14.6 10.5-23.2 10.5zM254.9 150.9c-9 0-19.3 4.8-31.1 18.1-28.3 31.8-20.8 82.4 50 145.5 23.7 21.1 50 30.7 73.3 30.7 20.5 0 38.7-7.4 50.8-21l24.6-27.6c2-2.3 1.8-5.8-0.5-7.8L290 171.2c-10-8.9-21.2-20.3-35.1-20.3z"  horiz-adv-x="1024" />

    
    <glyph glyph-name="qianzi" unicode="&#59028;" d="M316.72566-128a72.606703 72.606703 0 0 0-28.026188 5.663323l-4.429009 2.032988-81.972968 41.821461a72.606703 72.606703 0 0 0-31.801736 97.656016l1.742561 3.267301 250.783553 429.904291c-73.986231 90.976199-94.388714 182.605859-61.352664 272.347744C395.939573 817.04885 477.622114 874.553359 604.393418 895.754517A14.521341 14.521341 0 0 0 620.003859 874.916393L538.176105 706.105808a72.606703 72.606703 0 0 1 33.68951-96.784736l37.900699-17.280395a72.606703 72.606703 0 0 1 94.388714 31.874343l85.24027 159.734747a14.521341 14.521341 0 0 0 24.904099 1.161707c57.141476-87.128044 61.933518-181.516758 14.521341-280.189268-47.412177-97.002556-133.088087-141.873498-255.139955-133.523727l-189.939136-454.227536a72.02585 72.02585 0 0 0-39.42544-39.20762 73.260164 73.260164 0 0 0-27.590547-5.663323zM581.086666 861.484153c-100.923318-22.435471-163.945936-70.646322-192.117337-146.810754-30.785242-82.989462-10.237545-165.252857 62.804799-251.509621a14.521341 14.521341 0 0 0 1.452134-16.699541L197.578059 8.210175l-1.379527-2.541234a43.564022 43.564022 0 0 1 19.313383-58.085363L300.534365-95.61741a43.564022 43.564022 0 0 1 56.415408 23.669785l194.077718 463.956834a14.521341 14.521341 0 0 0 14.521341 8.858018c116.170725-10.745792 193.424258 27.372727 236.480033 116.170725 39.64326 82.045575 39.933687 157.556546 0.580853 230.090643L729.567375 610.264959a101.649385 101.649385 0 0 0-131.853774-44.653122l-38.263732 17.425609a101.649385 101.649385 0 0 0-47.412178 135.701928zM577.456331 753.300165a94.243501 91.194019 90 1 1 182.388039 0 94.243501 91.194019 90 1 1-182.388039 0ZM668.650351 651.795994a100.124644 100.124644 0 0 0-98.45469 101.649384 98.527296 98.527296 0 1 0 196.909379 0 100.124644 100.124644 0 0 0-98.454689-101.649384z m0 188.777428a85.603303 85.603303 0 0 1-83.933349-87.128044 84.005956 84.005956 0 1 1 167.866698 0A85.603303 85.603303 0 0 1 668.650351 840.282995zM437.18018 82.55944a15.102194 15.102194 0 0 0-6.098963 1.30692l-94.388714 43.564022a14.550383 14.550383 0 0 0 12.197926 26.42884l94.388714-43.564022a14.521341 14.521341 0 0 0-6.098963-27.73576zM404.797591 1.965999a14.521341 14.521341 0 0 0-6.461997 1.524741l-74.930118 37.029418a14.521341 14.521341 0 1 0 12.923993 25.9932l74.930118-37.029419a14.521341 14.521341 0 0 0-6.461996-27.51794zM476.533014 166.638002a14.521341 14.521341 0 0 0-6.38939 1.524741l-68.395515 33.616903A14.521341 14.521341 0 1 0 414.526889 227.772846l68.395514-33.544297a14.521341 14.521341 0 0 0-6.389389-27.590547z"  horiz-adv-x="1024" />

    
    <glyph glyph-name="cheliangguanli" unicode="&#58921;" d="M948.64 402.34L779.77 576.06a39.93 39.93 0 0 1-28.63 12.11h-149.2v47.52A70.15 70.15 0 0 1 532 706H134a70.15 70.15 0 0 1-70-70.31v-489.12a40.09 40.09 0 0 1 40-40.18h19.93C124 35.47 181.28-22 251.91-22s127.89 57.47 128 128.39H644.4c0.1-70.92 57.36-128.39 128-128.39s127.89 57.47 128 128.39H960V374.31a40.25 40.25 0 0 1-11.36 28.03zM251.91 154.77a48.1 48.1 0 0 1-48-48.21v-0.17a48 48 0 1 1 96 0v0.17a48.11 48.11 0 0 1-48 48.21zM772.39 154.77a48.11 48.11 0 0 1-48-48.21v-0.17a48 48 0 1 1 96 0v0.17a48.1 48.1 0 0 1-48 48.21zM745.49 495.83a40 40 0 0 1-28.64 12.07H640V287h240v70.91z"  horiz-adv-x="1024" />

    
    <glyph glyph-name="gongjuguanli" unicode="&#58923;" d="M724.7 595.1V581c0-38.7 32.9-70.1 73.3-70.1h60v-435.8H138V510.9h60c40.4 0 73.3 31.5 73.3 70.1v14.1h453.4m6.6 40H264.7c-18.4 0-33.3-13.5-33.3-30.1v-24c0-16.6-14.9-30.1-33.3-30.1h-66.7c-18.4 0-33.3-13.5-33.3-30.1v-455.5c0-16.6 14.9-30.1 33.3-30.1h733.3c18.4 0 33.3 13.5 33.3 30.1V520.8c0 16.6-14.9 30.1-33.3 30.1H798c-18.4 0-33.3 13.5-33.3 30.1v24c0 16.6-15 30.1-33.4 30.1zM573.9 489.7c8.6 0 17-3.2 23.4-9.1l56.3-51v-11.3l-185.8-0.1c-6.3 17.7-20.7 31.4-38.5 36.2 17.4 4.7 31.5 17.9 38 35.1l86.3 0.1 20.3 0.1m-227.3-0.2c6.5-17.2 20.7-30.4 38.1-35.1-17.8-4.8-32.1-18.5-38.5-36.3H338v71.4h8.6m227.3 40.2c-0.1 0-0.1 0 0 0h-20.3l-106.3-0.1c-8.8 0-16-8.3-16-18.5s-7.2-18.5-16-18.5h-16.5c-8.8 0-16 8.3-16 18.5s-7.2 18.5-16 18.5h-52.7c-8.8 0-16-8.3-16-18.5l0.1-114.4c0-10.2 7.2-18.5 16-18.5h52.7c8.8 0 16 8.3 16 18.5v1.2c0 10.2 7.2 18.5 16 18.5h16.5c8.8 0 16-8.3 16-18.5v-1.2c0-10.2 7.2-18.5 16-18.5l230.3 0.1c8.8 0 16 8.3 16 18.5v42.1c0 7.1-3.5 13.5-9 16.6l-60.4 54.7c-14 12.5-31.9 19.5-50.4 19.5zM522.2 329.4l0.1-194.1h-53l-0.1 194.1h53m17.9 40l-88.8-0.1c-12.2 0-22.1-10-22.1-22.4l0.1-229.4c0-12.4 9.9-22.4 22.1-22.4l88.7 0.1c12.2 0 22.1 10 22.1 22.4V347c0 12.3-9.9 22.4-22.1 22.4zM522.8 406.1h-49.6v-67.5h49.6v67.5z"  horiz-adv-x="1024" />

    
    <glyph glyph-name="yuandian" unicode="&#58920;" d="M512 384m-442.7 0a442.7 442.7 0 1 1 885.4 0 442.7 442.7 0 1 1-885.4 0ZM512 384m-263 0a263 263 0 1 1 526 0 263 263 0 1 1-526 0Z"  horiz-adv-x="1024" />

    
    <glyph glyph-name="xia2" unicode="&#58895;" d="M515.218 23.459l478.947 718.424-957.906-0.01 478.959-718.414z"  horiz-adv-x="1024" />

    
    <glyph glyph-name="shexiangtou1" unicode="&#58925;" d="M510.80529 748.794333c-187.374528 0-339.265914-151.875013-339.265914-339.266937 0-187.359178 151.891386-339.265914 339.265914-339.265914S850.071204 222.168218 850.071204 409.527396C850.071204 596.919321 698.179818 748.794333 510.80529 748.794333zM510.80529 256.859321c-84.318384 0-152.669098 68.349691-152.669098 152.668075 0 84.319407 68.350714 152.670122 152.669098 152.670122 84.319407 0 152.669098-68.350714 152.669098-152.670122C663.474388 325.209012 595.124697 256.859321 510.80529 256.859321zM395.788743 55.451172c-24.153096-27.929096-75.258031-86.968747-88.542592-101.647051-17.509792-19.348674 59.569724-19.415189 202.334241-19.415189 142.763494 0 219.84301 0.065492 202.316845 19.415189-13.384845 14.777565-65.203024 74.645071-89.107457 102.310154-35.764552-12.789281-74.280774-19.780509-114.452705-19.780509C468.894761 36.334789 431.007873 43.093726 395.788743 55.451172zM578.657654 776.425647c-5.184069 32.401967-33.577746 57.18542-67.853387 57.18542-34.273595 0-62.667272-24.783453-67.853387-57.18542 21.982664 4.14132 44.661176 6.294356 67.853387 6.294356S556.676014 780.566968 578.657654 776.425647z"  horiz-adv-x="1024" />

    
    <glyph glyph-name="sousuo" unicode="&#58947;" d="M888.703059 48.841637 733.373365 204.173378c50.040696 59.650565 80.190367 136.551002 80.190367 220.507136 0 189.613522-153.703661 343.318206-343.31616 343.318206-189.616592 0-343.31923-153.703661-343.31923-343.318206s153.703661-343.318206 343.31923-343.318206c85.053118 0 162.867368 30.94171 222.838228 82.163301l155.141406-155.141406c11.174504-11.17655 29.300326-11.17655 40.47483 0C899.859144 19.559731 899.859144 37.665087 888.703059 48.841637zM470.248595 138.583544c-158.006663 0-286.10004 128.090307-286.10004 286.097994 0 158.006663 128.093377 286.099017 286.10004 286.099017s286.079574-128.093377 286.079574-286.099017C756.32817 266.673851 628.254236 138.583544 470.248595 138.583544z"  horiz-adv-x="1024" />

    
    <glyph glyph-name="dui" unicode="&#58943;" d="M927.97968 787.639371a50.575037 50.575037 0 0 1-69.085501-18.517689l-391.898737-678.933747-316.000056 182.409708A50.575037 50.575037 0 0 1 100.427574 184.994454l359.812488-207.690002a50.553362 50.553362 0 0 1 69.078276 18.517689L946.504593 718.55387a50.575037 50.575037 0 0 1-18.524913 69.085501z"  horiz-adv-x="1024" />

    
    <glyph glyph-name="dui1" unicode="&#58961;" d="M1.892473 890.17388h1018.166679v-1018.188283H1.892473zM1.892473 890.17388l1018.166679-1018.181082M1.892473-128.007202L1020.059152 890.17388M1.892473 890.17388h1018.166679v-1018.188283H1.892473zM1.892473 890.17388l1018.166679-1018.181082M1.892473-128.007202L1020.059152 890.17388M907.504851 769.539349a50.411421 50.411421 0 0 1-68.862001-18.457782l-390.630903-676.737323-314.977762 181.819593a50.411421 50.411421 0 0 1-50.404219-87.319783l358.648456-207.018103a50.40422 50.40422 0 0 1 68.8548 18.45058L925.969835 700.677347a50.411421 50.411421 0 0 1-18.464984 68.862002z"  horiz-adv-x="1024" />

    
    <glyph glyph-name="dkw_xiaoxi" unicode="&#58889;" d="M288 469.333333a53.333333 53.333333 0 1 1 53.333333-53.333333 53.333333 53.333333 0 0 1-53.333333 53.333333z m0-64a10.666667 10.666667 0 1 0 10.666667 10.666667 10.666667 10.666667 0 0 0-10.666667-10.666667zM522.666667 469.333333a53.333333 53.333333 0 1 1 53.333333-53.333333 53.333333 53.333333 0 0 1-53.333333 53.333333z m0-64a10.666667 10.666667 0 1 0 10.666666 10.666667 10.666667 10.666667 0 0 0-10.666666-10.666667zM757.333333 469.333333a53.333333 53.333333 0 1 1 53.333334-53.333333 53.333333 53.333333 0 0 1-53.333334 53.333333z m0-64a10.666667 10.666667 0 1 0 10.666667 10.666667 10.666667 10.666667 0 0 0-10.666667-10.666667zM512 853.333333C224.853333 853.333333 0 666.666667 0 426.666667a413.44 413.44 0 0 1 166.826667-327.04l-42.666667-126.72a43.946667 43.946667 0 0 1 0-50.773334 29.653333 29.653333 0 0 1 21.333333-8.533333 97.066667 97.066667 0 0 1 42.666667 14.506667c31.146667 17.066667 66.986667 35.626667 95.786667 50.773333L322.133333 0a673.066667 673.066667 0 0 1 189.866667-21.333333c282.24 0 512 200.96 512 448C1024 666.666667 799.146667 853.333333 512 853.333333z m0-832a604.586667 604.586667 0 0 0-185.173333 21.333334 21.333333 21.333333 0 0 1-17.28-1.493334c-9.6-5.333333-25.813333-13.653333-45.226667-23.893333-29.226667-15.146667-65.28-33.92-96.853333-51.2l-2.346667-1.28 46.72 135.893333a21.333333 21.333333 0 0 1-7.68 24.32A373.12 373.12 0 0 0 42.666667 426.666667C42.666667 642.773333 248.746667 810.666667 512 810.666667s469.333333-168.746667 469.333333-384c0-222.72-210.56-405.333333-469.333333-405.333334z"  horiz-adv-x="1024" />

    
    <glyph glyph-name="you1" unicode="&#58903;" d="M950.857 384L73.143-127.999V896z"  horiz-adv-x="1024" />

    
    <glyph glyph-name="xiugai" unicode="&#58991;" d="M295.384615 187.076923h433.23077a19.692308 19.692308 0 1 0 0-39.384615h-433.23077a19.692308 19.692308 0 1 0 0 39.384615zM590.769231 592.423385L618.653538 620.307692l72.979693-73.019077-27.844923-27.844923L590.769231 592.423385z m-236.307693-196.923077L382.345846 423.384615l89.284923-89.324307-27.844923-27.844923L354.461538 395.500308zM401.329231 279.158154l308.342154 308.342154-55.689847 55.689846-308.381538-308.342154-8.152615-63.881846 63.881846 8.192z m-93.065846 74.043077l317.833846 317.833846a39.384615 39.384615 0 0 0 55.729231 0l55.689846-55.689846a39.384615 39.384615 0 0 0 0-55.689846l-317.833846-317.833847-127.763693-16.344615 16.344616 127.724308z"  horiz-adv-x="1024" />

    
    <glyph glyph-name="xiaoxi" unicode="&#59115;" d="M799.9 214.7c7 0.2 14-1.2 20.7-5.6-24.3 15.6-40.3 42.8-40.3 73.9V456.5c0 127.1-91.9 233.2-214.7 259.3V722c0 32.4-26.2 58.5-58.5 58.5s-58.5-26.2-58.5-58.5v-6.2c-122.8-26.1-214.7-132.1-214.7-259.3V283c0-31.1-16.1-58.3-40.3-73.9 6.8 4.4 13.7 5.9 20.7 5.6-21.5-0.1-38.9-17.4-38.9-39s17.4-39 39-39h585.3c21.6 0 39 17.4 39 39 0.1 21.4-17.3 38.9-38.8 39zM507.2 0c53.9 0 97.6 43.7 97.6 97.6H409.6c0-53.9 43.6-97.6 97.6-97.6z"  horiz-adv-x="1024" />

    
    <glyph glyph-name="xiaoxi-" unicode="&#58892;" d="M268.2-61.9c-6.4 0-12.8 1.9-18.2 5.7-9.3 6.4-14.5 17.3-13.7 28.6l11.8 165.1c0.1 2-1.5 3.8-3 4.8-55.3 34.5-101.3 80-133 131.7C79 328.1 61.5 389.2 61.5 450.7c0 52.2 12.1 102.8 36 150.4 22.9 45.5 55.5 86.3 96.9 121.2 84.1 70.9 195.7 109.9 314.1 109.9s229.9-39 314.1-109.9c41.5-34.9 74.1-75.7 96.9-121.2 23.9-47.6 36-98.2 36-150.4 0-184-153.6-341.7-365.1-375.1-15.4-2.4-28.3-6.1-39.6-11.3L281.6-59c-4.3-1.9-8.8-2.9-13.4-2.9z m240.3 830c-211.2 0-383-142.4-383-317.5 0-50.4 13.9-98.6 41.2-143.2 26.5-43.3 65.3-81.6 112.2-110.8 22.2-13.8 34.8-38.2 33-63.6l-8-111.3L524 122.5c16.6 7.6 35 12.9 56.3 16.3 87.2 13.8 166.6 52.8 223.5 110 27.9 28 49.6 59.4 64.5 93.3 15.3 34.7 23.1 71.3 23.1 108.6 0.1 175-171.7 317.4-382.9 317.4zM280 135.3zM320.1 448.9m-64 0a64 64 0 1 1 128 0 64 64 0 1 1-128 0ZM512.1 448.9m-64 0a64 64 0 1 1 128 0 64 64 0 1 1-128 0ZM704.1 448.9m-64 0a64 64 0 1 1 128 0 64 64 0 1 1-128 0Z"  horiz-adv-x="1024" />

    
    <glyph glyph-name="shexiangtou2" unicode="&#58890;" d="M825.4 601.1c-17.1 40.5-41.7 76.9-72.9 108.1s-67.6 55.8-108.1 72.9C602.5 799.9 557.9 808.9 512 808.9c-45.9 0-90.5-9-132.4-26.7-40.5-17.1-76.9-41.7-108.1-72.9s-55.8-67.6-72.9-108.1c-17.7-41.9-26.7-86.5-26.7-132.4s9-90.5 26.7-132.4c17.1-40.5 41.7-76.9 72.9-108.1s67.6-55.8 108.1-72.9c24.3-10.3 49.4-17.6 75.2-22v-134.3H339.7c-11 0-20-9-20-20s9-20 20-20h344.6c11 0 20 9 20 20s-9 20-20 20H569.2V133.4c25.8 4.4 50.9 11.7 75.2 22 40.5 17.1 76.9 41.7 108.1 72.9s55.8 67.6 72.9 108.1c17.7 41.9 26.7 86.5 26.7 132.4s-8.9 90.4-26.7 132.3z m-296.2-602h-34.4V129c5.7-0.3 11.4-0.4 17.2-0.4 5.8 0 11.5 0.1 17.2 0.4v-129.9z m195 257.4c-56.7-56.7-132.1-87.9-212.2-87.9s-155.6 31.2-212.2 87.9c-56.7 56.7-87.9 132.1-87.9 212.2s31.2 155.6 87.9 212.2c56.7 56.7 132.1 87.9 212.2 87.9 80.2 0 155.6-31.2 212.2-87.9 56.7-56.7 87.9-132.1 87.9-212.2s-31.2-155.5-87.9-212.2zM512 599.4c-97.4 0-176.6-79.2-176.6-176.6S414.6 246.3 512 246.3s176.6 79.2 176.6 176.6S609.4 599.4 512 599.4z m0-313.1c-75.3 0-136.6 61.3-136.6 136.6S436.7 559.4 512 559.4s136.6-61.3 136.6-136.6S587.3 286.3 512 286.3zM512 683.9m-37.6 0a37.6 37.6 0 1 1 75.2 0 37.6 37.6 0 1 1-75.2 0Z"  horiz-adv-x="1024" />

    
    <glyph glyph-name="guiji" unicode="&#58977;" d="M782.4-14.9c54 0 98.8 41.4 98.8 93.8s-44.8 93.8-98.8 93.8H241.2c-20.3 0-35.7 14.3-35.7 30.7 0 16.3 15.4 30.7 35.7 30.7h112.1c17.4 0 31.5 14.1 31.5 31.5-0.4 17.8-14.5 32-31.5 31.6H241.2c-54 0-98.8-41.4-98.8-93.8s44.8-93.8 98.8-93.8h541.1c20.3 0 35.8-14.3 35.8-30.7 0-16.3-15.4-30.7-35.8-30.7H330.9c-17 0.4-31.1-13.7-31.5-31.5 0-17.4 14.1-31.6 31.5-31.6h451.5zM541.5 783.9c-114.3 0.3-206.9-92.3-207.2-206.6 0-84.8 114.6-243.5 173.6-319.3 16.5-18.6 44.9-20.3 63.5-3.9l3.9 3.9c58.9 75.8 173.6 234.1 173.6 319.3-0.4 114.3-93.1 206.7-207.4 206.6z m0-323.3c-30.8 0-60.3 12.2-82.1 34-21.8 21.8-34 51.3-34 82.1 0 30.8 12.2 60.3 34 82 21.8 21.7 51.3 33.9 82.1 33.8 63.2-1.1 113.9-52.7 113.9-116 0-63.2-50.7-114.8-113.9-115.9z m0 0"  horiz-adv-x="1024" />

    
    <glyph glyph-name="jizhanxinhao" unicode="&#58982;" d="M177.9 546.5c-0.1 54.6 21.2 107.1 59.4 146.1 8.4 8.4 11.6 20.6 8.4 32-3.2 11.4-12.2 20.2-23.7 23.1-11.5 2.9-23.6-0.6-31.8-9.2-105.5-108-104.1-280.8 3-387.1 12.9-12.8 33.7-12.8 46.5 0.1 12.8 12.9 12.8 33.7-0.1 46.6-39.6 39.2-61.8 92.6-61.7 148.4z m490.9 124.6c-13.1-12.6-13.5-33.4-0.9-46.5 42.7-44.5 41.8-114.9-2-158.3-8.6-8.2-12.2-20.5-9.2-32 2.9-11.5 11.9-20.6 23.4-23.7 11.5-3.1 23.8 0.3 32.1 8.9 69.3 68.6 70.8 180.2 3.2 250.6-6 6.3-14.3 9.9-23.1 10.1-8.7 0.2-17.2-3.1-23.5-9.1z m0 0M833.3 738.5c-8.2 8.6-20.3 12.1-31.8 9.2-11.5-2.9-20.5-11.7-23.7-23.1-3.2-11.4 0-23.6 8.4-32 80.1-82.1 79.1-213.5-2.3-294.4-12.9-12.8-13-33.7-0.1-46.5 12.8-12.9 33.7-13 46.6-0.1 106.9 106.2 108.2 278.9 2.9 386.9zM357.9 419.7c12.8 12.9 12.7 33.8-0.2 46.5-43.8 43.3-44.7 113.8-2 158.3 12.6 13.1 12.2 34-0.9 46.5-13.1 12.6-34 12.2-46.5-0.9-67.6-70.4-66.1-182 3.2-250.6 12.7-12.8 33.6-12.7 46.4 0.2z m202 50c32.1 21.4 46.4 61.3 35.3 98.2-11.1 36.9-45 62.3-83.6 62.5-38.6 0.2-72.8-24.8-84.3-61.6s2.4-76.8 34.3-98.6L313.8 64.1c-6.2-17.1 2.6-35.9 19.7-42.2 17.1-6.2 35.9 2.7 42.2 19.7l31.3 85.9h207.4l32-88c5.7-15.4 22.7-23.4 38.1-17.8l6 2.2c15.4 5.7 23.4 22.7 17.8 38.1L559.9 469.7z m-49.3-57.2l39.8-109.4h-79.6l39.8 109.4z m-82.4-226.4l21.3 58.5h122.2l21.3-58.5H428.2z m0 0"  horiz-adv-x="1024" />

    
    <glyph glyph-name="sousuo1" unicode="&#58904;" d="M946.8 12.9L786.2 173.5c55.5 69.4 88.9 157.2 88.9 252.9C875 650.4 693.5 832 469.5 832S64 650.4 64 426.5 245.6 21 469.5 21c95.7 0 183.6 33.4 252.9 88.9L883-50.7c17.6-17.6 46.1-17.6 63.7 0 17.7 17.5 17.7 46 0.1 63.6z m-477.3 98.2c-174.2 0-315.4 141.2-315.4 315.4s141.2 315.4 315.4 315.4 315.4-141.2 315.4-315.4-141.2-315.4-315.4-315.4z"  horiz-adv-x="1024" />

    
    <glyph glyph-name="cuo" unicode="&#58944;" d="M794.8 101.2c-14-14-36.9-14-50.9 0L229.2 615.9c-14 14-14 36.9 0 50.9s36.9 14 50.9 0L794.9 152c13.9-13.9 13.9-36.8-0.1-50.8zM794.8 666.8c14-14 14-36.9 0-50.9L280.1 101.2c-14-14-36.9-14-50.9 0s-14 36.9 0 50.9L744 666.9c13.9 13.9 36.8 13.9 50.8-0.1z"  horiz-adv-x="1024" />

    
    <glyph glyph-name="tubiaozhizuo-" unicode="&#58885;" d="M474.91 829h74.19v-890h-74.19z"  horiz-adv-x="1024" />

    
    <glyph glyph-name="tubiaozhizuo-1" unicode="&#58891;" d="M511.96 129.73000000000002L67 638.27h890L511.96 129.73000000000002z"  horiz-adv-x="1024" />

    
    <glyph glyph-name="icon-" unicode="&#58997;" d="M512 219.733333a42.666667 42.666667 0 0 0-31.573333 14.08 1437.866667 1437.866667 0 0 1-122.026667 122.453334 256 256 0 1 0 307.2 0 1503.146667 1503.146667 0 0 1-122.026667-122.453334 42.666667 42.666667 0 0 0-31.573333-14.08z m0 512a170.666667 170.666667 0 0 1-102.4-307.2 1081.6 1081.6 0 0 0 102.4-99.413333 1081.6 1081.6 0 0 0 102.4 99.413333 170.666667 170.666667 0 0 1-102.4 307.2zM512 497.066667a64 64 0 1 0 64 64 64 64 0 0 0-64-64z m0 85.333333a21.333333 21.333333 0 0 1-21.333333-21.333333 21.333333 21.333333 0 1 1 42.666666 0 21.333333 21.333333 0 0 1-21.333333 21.333333zM618.666667 6.4h-426.666667a106.666667 106.666667 0 0 0 0 213.333333H341.333333a42.666667 42.666667 0 0 0 0-85.333333H192a21.333333 21.333333 0 0 1-21.333333-21.333333 21.76 21.76 0 0 1 21.333333-21.333334h426.666667a42.666667 42.666667 0 0 0 0-85.333333zM832-121.6H469.333333a42.666667 42.666667 0 0 0 0 85.333333h362.666667a21.76 21.76 0 0 1 21.333333 21.333334 21.333333 21.333333 0 0 1-21.333333 21.333333h-426.666667a42.666667 42.666667 0 0 0 0 85.333333h426.666667a106.666667 106.666667 0 0 0 0-213.333333z"  horiz-adv-x="1024" />

    
    <glyph glyph-name="xia" unicode="&#59056;" d="M889.06160075 577.86413369l-377.06160075-377.06160072-377.06160075 377.06160072h754.1232015z"  horiz-adv-x="1024" />

    
    <glyph glyph-name="shanchu" unicode="&#58900;" d="M517.59 874.391c-100.299 0-181.703-79.514-185.167-179.34H98.603c-25.979 0-47.235-21.099-47.235-47.236 0-25.98 21.099-47.237 47.236-47.237h52.117v-528.416c0-99.196 67.233-180.285 150.37-180.285h423.55c82.98 0 150.37 80.616 150.37 180.285V600.263h47.236c25.98 0 47.236 21.1 47.236 47.237 0 25.98-21.099 47.236-47.236 47.236H702.441C699.449 794.876 617.888 874.39 517.59 874.39z m-96.677-179.34c3.464 51.172 45.19 90.85 96.834 90.85s93.37-39.835 96.362-90.85H420.913z m-119.98-714.842c-29.444 0-61.88 37.789-61.88 91.953V600.263h547.311V71.69c0-54.007-32.436-91.954-61.88-91.954H300.933v0.473z m0 0M364.387 93.733c21.57 0 39.363 21.571 39.363 48.653V419.978c0 27.082-17.635 48.654-39.363 48.654-21.572 0-39.364-21.572-39.364-48.654v-277.592c0-26.924 17.32-48.653 39.364-48.653z m142.496 0c21.571 0 39.363 21.571 39.363 48.653V419.978c0 27.082-17.635 48.654-39.363 48.654-21.571 0-39.364-21.572-39.364-48.654v-277.592c0-26.924 17.793-48.653 39.364-48.653z m149.896 0c21.571 0 39.364 21.571 39.364 48.653V419.978c0 27.082-17.635 48.654-39.364 48.654-21.571 0-39.363-21.572-39.363-48.654v-277.592c0-26.924 17.162-48.653 39.363-48.653z m0 0"  horiz-adv-x="1024" />

    
    <glyph glyph-name="xiangqing" unicode="&#58917;" d="M669.4-0.3c-61.7 0-119.7 24-163.3 67.6-43.6 43.7-67.6 101.7-67.6 163.4s24 119.7 67.6 163.3 101.6 67.6 163.3 67.6 119.7-24 163.3-67.6 67.6-101.6 67.6-163.3c0-61.7-24-119.7-67.6-163.3-43.6-43.7-101.6-67.7-163.3-67.7z m0 391.9c-88.7 0-160.9-72.2-160.9-160.9s72.2-160.9 160.9-160.9S830.3 142 830.3 230.7c0.1 88.7-72.1 160.9-160.9 160.9zM919.9-54.1c-8.4 0-16.8 3-23.5 9.1l-109 99.1c-14.3 13-15.4 35.1-2.4 49.4 13 14.3 35.1 15.4 49.4 2.4l109-99.1c14.3-13 15.4-35.1 2.4-49.4-6.9-7.7-16.4-11.5-25.9-11.5zM388.5-58.2H104.1c-19.3 0-35 15.7-35 35V791.2c0 19.3 15.7 35 35 35h780c19.3 0 35-15.7 35-35v-254.5c0-19.3-15.7-35-35-35s-35 15.7-35 35V756.2h-710v-744.4h249.4c19.3 0 35-15.7 35-35s-15.6-35-35-35zM775.1 616.8h-568c-19.3 0-35 15.7-35 35s15.7 35 35 35h568c19.3 0 35-15.7 35-35s-15.6-35-35-35zM459.7 429H210.9c-19.3 0-35 15.7-35 35s15.7 35 35 35h248.7c19.3 0 35-15.7 35-35s-15.6-35-34.9-35z"  horiz-adv-x="1024" />

    
    <glyph glyph-name="xia1" unicode="&#58970;" d="M233.6 489.6c-12.8 12.8-12.8 32 0 44.8 12.8 12.8 28.8 12.8 41.6 3.2l3.2-3.2 233.6-233.6 233.6 233.6c12.8 12.8 28.8 12.8 41.6 3.2l3.2-3.2c12.8-12.8 12.8-28.8 3.2-41.6l-3.2-3.2-256-256c-12.8-12.8-28.8-12.8-41.6-3.2l-3.2 3.2-256 256z"  horiz-adv-x="1024" />

    
    <glyph glyph-name="zuo1" unicode="&#58880;" d="M133 382.665l718.424-478.947-0.01 957.906L133 382.665z"  horiz-adv-x="1024" />

    
    <glyph glyph-name="shang" unicode="&#58881;" d="M515.206 741.883L36.259 23.459l957.906 0.01-478.959 718.414z"  horiz-adv-x="1024" />

    
    <glyph glyph-name="you2" unicode="&#58882;" d="M874.424 382.677L156 861.624l0.01-957.906 718.414 478.959z"  horiz-adv-x="1024" />

    
    <glyph glyph-name="shang1" unicode="&#58945;" d="M256.32 256l256 256 256-256z"  horiz-adv-x="1024" />

    
    <glyph glyph-name="you11" unicode="&#58884;" d="M238.944 766.208v-764.8c0-17.6 14.4-32 32-32 6.4 0 14.4 1.6 19.232 6.4l476.8 369.6c20.8 16 24 46.4 8 67.2-3.2 3.232-4.8 6.368-8 7.968l-476.8 371.264c-14.4 11.2-33.632 8-44.8-6.4-4.832-4.832-6.432-11.232-6.432-19.232z"  horiz-adv-x="1024" />

    
    <glyph glyph-name="shexiangtou" unicode="&#59368;" d="M511.849574 587.913819c73.213319 0 132.55268-59.318895 132.55268-132.507655 0.002047-73.213319-59.339361-132.554727-132.554726-132.554727-108.875469 0.002047-170.230739 123.823896-107.250462 210.401567 20.472223-42.659504 85.305704-28.230915 85.305704 19.371148 0.005117 11.969589-4.683663 22.811496-12.268393 30.829084a132.804413 132.804413 0 0 0 34.213151 4.455466l0.002046 0.005117zM550.417908 727.950945c-1.895159-4.653987-71.393884-4.519934-77.136667-0.005116l0.005116 96.330783C164.999608 792.459016 28.573722 414.114818 249.588999 193.122053c233.059567-233.027845 633.141816-67.154335 633.141816 262.233969 0.002047 190.981301-144.697254 349.522836-332.317 368.921613l0.004093-96.32669z m-38.568334 2.648312l-0.002046-0.005117c-5.067402 0-10.106152-0.099261-15.095783-0.380669V825.959947h30.192589v-95.746476c-4.991678 0.278339-10.030427 0.385786-15.09476 0.385786z m0 149.630603c377.172515 0 567.457969-458.146572 300.413447-725.243283-9.645665-9.668178-19.778423-18.836983-30.292873-27.543254-238.444194-192.763897-491.158364-47.636855-540.242171 0.005116C48.305073 287.037838 33.970628 578.312156 211.431011 755.769469 288.310829 832.679986 394.544126 880.22986 511.847528 880.22986h0.002046zM511.849574 681.2586c-124.71417 0-225.880066-101.113707-225.880065-225.852436 0-200.547148 243.645649-301.689507 385.594308-159.741872 141.947636 141.974242 40.832906 385.594308-159.716289 385.594308h0.002046z m121.556254-104.320742h-0.002047c67.130799-67.105216 67.132846-176.008314 0-243.113531-107.987241-107.989287-293.468282-31.131982-293.468281 121.581837 0 152.663677 185.486157 229.518935 293.470328 121.531694zM689.893241 633.425271C531.657673 791.615813 260.079914 678.969469 260.079914 455.356022c0-223.563305 271.573666-336.212719 429.813327-177.996594 98.31804 98.31497 98.312923 257.726314 0 356.065843z m-139.475333 94.525674c223.078259-31.291618 316.908087-306.326098 156.04672-467.188487-172.927146-172.950682-469.858288-49.795003-469.858288 194.593564 0 138.078523 102.05617 253.701659 236.674901 272.589807 26.153608 2.705616 38.58573 4.189407 77.136667 0.005116zM473.286357-58.264892v90.529672c-65.889531 5.925954-127.467882 26.927225-181.206699 59.48774L276.169325-58.264892h197.117032z m53.657977 0v89.074533h-30.192589v-89.074533h30.192589z m23.473574 90.529672v-90.529672h197.113962L731.621537 91.707495c-53.744957-32.511396-115.299772-53.516761-181.208746-59.447832l0.005117 0.005117z m231.553264 95.179566l22.249702-209.964616c1.634217-15.786513-10.920702-29.635912-26.781916-29.635912l0.005116-0.074701H246.230515c-16.266443 0-29.098677 13.9241-26.552696 31.818619l22.051181 207.861726c-21.356358 18.82675 280.129512-177.792957 540.242172-0.005116z"  horiz-adv-x="1024" />

    
    <glyph glyph-name="xitongshezhi" unicode="&#58919;" d="M512.04608 294.81472c-49.23392 0-89.1904 40.04352-89.1904 89.18528s39.95648 89.18528 89.1904 89.18528c49.23392 0 89.1904-40.04352 89.1904-89.18528s-39.95648-89.18528-89.1904-89.18528m0 267.55072c-98.3808 0-178.3808-79.99488-178.3808-178.36544s80-178.36544 178.3808-178.36544c98.37568 0 178.3808 79.99488 178.3808 178.36544s-80.00512 178.36544-178.3808 178.36544m0-512.80384C327.68 49.5616 177.57696 199.56736 177.57696 384c0 184.43264 150.10816 334.4384 334.46912 334.4384 184.35584 0 334.464-150.00576 334.464-334.4384 0-184.43264-150.10816-334.4384-334.464-334.4384m467.35872 379.0336h-48.25088c-8.73984 83.11296-41.20576 158.5664-91.15648 220.27776l34.16064 34.15552c17.39264 17.3056 17.39264 45.57312 0 63.0528-17.47968 17.39264-45.66528 17.39264-63.05792 0l-34.16064-34.1504c-61.80864 49.93536-137.08288 82.30912-220.29824 91.136V851.41504c0 24.61184-19.97824 44.59008-44.5952 44.59008-24.61696 0-44.5952-19.97824-44.5952-44.5952v-48.3328c-83.21536-8.832-158.49472-41.20576-220.30336-91.14624L212.992 746.0864c-17.39264 17.39264-45.57312 17.39264-63.05792 0-17.39264-17.38752-17.39264-45.66016 0-63.0528l34.16064-34.1504C134.144 587.06432 101.6832 511.70816 92.93824 428.58496H44.5952A44.55424 44.55424 0 0 1 0 384a44.55424 44.55424 0 0 1 44.5952-44.5952h48.34304c8.73984-83.11296 41.20576-158.47424 91.15136-220.27776l-34.16064-34.06848c-17.39264-17.39264-17.39264-45.66016 0-63.0528a44.51328 44.51328 0 0 1 31.57504-13.1072c11.4176 0 22.8352 4.36736 31.488 13.1072l34.15552 34.06848c61.7216-49.94048 137.088-82.31424 220.30336-91.14624v-48.3328c0-24.61696 19.97824-44.5952 44.5952-44.5952 24.61696 0 44.5952 19.97824 44.5952 44.5952v48.3328c83.1232 8.832 158.4896 41.20576 220.29824 91.14624l34.16064-34.15552a44.4416 44.4416 0 0 1 31.488-13.02016c11.4176 0 22.8352 4.36736 31.56992 13.1072 17.39264 17.47968 17.39264 45.66016 0 63.0528l-34.16064 34.06848c49.95072 61.7984 82.41664 137.1648 91.15648 220.28288h48.25088A44.55424 44.55424 0 0 1 1024 384a44.55424 44.55424 0 0 1-44.5952 44.5952"  horiz-adv-x="1024" />

    
    <glyph glyph-name="xinxi" unicode="&#58887;" d="M911.7 25.5H114.9c-63.4 0-114.9 51.6-114.9 114.9V626.9c0 63.4 51.6 114.9 114.9 114.9h796.7c63.4 0 114.9-51.6 114.9-114.9v-486.4c0.1-63.4-51.5-115-114.8-115zM114.9 703.1c-42 0-76.2-34.2-76.2-76.2v-486.4c0-42 34.2-76.2 76.2-76.2h796.7c42 0 76.2 34.2 76.2 76.2V626.9c0 42-34.2 76.2-76.2 76.2H114.9zM516.6 297L6.1 663.1l8.3 15.1c21.8 39.2 62.8 63.6 107.1 63.6h781c47.1 0 89.3-26.6 110.1-69.3l7.2-14.7L516.6 297zM58.1 673.5l458.6-328.9 452.8 324.7C953.8 690.4 929.3 703 902.6 703h-781c-24.6 0.1-47.7-11-63.5-29.5z"  horiz-adv-x="1026" />

    
    <glyph glyph-name="guijihuifang" unicode="&#58910;" d="M462.272 583.104l0-298.624 248.896 0L711.168 367.424 541.952 367.424l0 215.68L462.272 583.104zM512 832C403.776 832 304.448 793.6 227.008 729.664l21.376 82.048L175.168 832l-40.96-157.056L113.856 596.48l73.28-20.224 155.712-42.88 20.416 78.528-90.56 24.96C335.168 695.936 419.264 732.48 512 732.48c192.448 0 348.48-156.032 348.48-348.48S704.448 35.584 512 35.584 163.648 191.552 163.648 384c0 9.856 2.048 19.136 2.88 28.8L65.92 421.184C64.96 408.896 64 396.544 64 384c0-247.424 200.576-448 448-448s448 200.576 448 448S759.424 832 512 832z"  horiz-adv-x="1024" />

    
    <glyph glyph-name="shishidianming" unicode="&#58936;" d="M534.860821 49.325825h-247.144007c-39.543041 0-158.584071 0-182.680611 16.888173 2.677393 93.502816 131.604183 137.782784 239.111826 158.378118h2.883347a107.507643 107.507643 0 0 1 80.733708 77.850362 99.269509 99.269509 0 0 1 4.325021 41.190668 347.443282 347.443282 0 0 1-11.327434 41.190667 147.050684 147.050684 0 0 1-24.096541 33.982301c-45.309735 43.868061-74.967015 123.572003-74.967015 208.218826-0.205953 112.450523 63.639582 186.799678 156.936444 186.799678s157.142397-74.349155 157.142398-186.799678c0-83.617056-28.215607-164.762671-74.967016-208.218826l-1.441673-1.441673a117.80531 117.80531 0 0 1-29.657281-114.71601 114.09815 114.09815 0 0 1 46.545455-61.786001 275.565567 275.565567 0 0 0 58.902655 64.463395h-3.501207a28.833467 28.833467 0 0 0-18.329847 20.595333 32.128721 32.128721 0 0 0 9.88576 32.540628c61.786002 61.786002 100.505229 161.467418 100.505229 267.73934C723.720032 782.725664 621.77313 896 481.518906 896S239.111826 780.66613 239.111826 625.583266a428.176991 428.176991 0 0 1 48.193081-199.568785l20.595334-32.540627 29.657281-35.423975a33.570394 33.570394 0 0 0 9.88576-33.982301 28.833467 28.833467 0 0 0-18.329847-20.595333C76.614642 257.338697 22.860821 146.947707 22.860821 62.094932c0-99.063556 135.929204-101.946903 267.73934-101.946903h273.91794a272.476267 272.476267 0 0 0-29.65728 89.177796zM788.801287 296.675784A212.337892 212.337892 0 1 1 1001.139179 84.337892 212.337892 212.337892 0 0 1 788.801287 296.675784z m43.868061-223.665325a34.188254 34.188254 0 0 0-9.88576-25.538214l-61.786002-49.634755a41.190668 41.190668 0 0 0-25.538214-9.88576 34.188254 34.188254 0 0 0-24.508447 10.091713 35.835881 35.835881 0 0 0 0 51.076428l49.634755 39.543041v99.063556a35.012068 35.012068 0 0 0 34.600161 35.423974 37.483508 37.483508 0 0 0 36.865647-36.865647z"  horiz-adv-x="1024" />

    
    <glyph glyph-name="dianziweilan" unicode="&#58906;" d="M980.864 311.04a473.696 473.696 0 0 0-395.936-400.928v-36.608H439.04V-89.92A473.664 473.664 0 0 0 43.136 311.136h-41.6v145.76h43.328A473.92 473.92 0 0 0 439.072 845.824V894.496h145.888v-48.768A474.016 474.016 0 0 0 979.168 456.96h43.328v-145.92h-41.632zM475.552-81.216h72.96v72.928h-72.96v-72.928z m-428.8 501.664v-72.928h72.96v72.928h-72.96z m501.76 428.768h-72.96v-72.928h72.96V849.216z m33.152-77.152v-40.032h-139.328v40a400.64 400.64 0 0 1-323.68-318.656h45.024v-139.328H116.768a400.416 400.416 0 0 1 325.568-330.208v51.584h139.328v-51.584a400.416 400.416 0 0 1 325.568 330.208h-46.912v139.328h45.088a400.864 400.864 0 0 1-323.744 318.656v0.032z m395.584-351.616h-72.992v-72.928h72.992v72.928zM285.12 384a226.88 226.88 0 1 1 453.792 0A226.88 226.88 0 0 1 285.12 384"  horiz-adv-x="1024" />

    
    <glyph glyph-name="shouye" unicode="&#58909;" d="M710.044978-42.026987l-183.716142 100.30185v1.535232 1.535232 1.535233 1.535232l183.716142-100.301849v-6.14093M710.556722-36.397801l-183.716142 100.301849 6.652673 222.096952 186.786607-88.531735zM720.27986 197.469265l-186.786607 89.043479c0 5.629185-0.511744 11.258371-1.535232 16.375812s-2.558721 9.723138-5.117441 14.328835c-2.046977 4.093953-5.117441 8.187906-8.187906 11.258371-3.070465 3.070465-6.652674 5.629185-10.746627 7.676162l186.786607-86.484758c4.093953-2.046977 7.676162-4.605697 10.746626-7.676162s6.14093-7.164418 8.187906-11.770114c2.046977-4.605697 4.093953-9.211394 5.117442-14.84058 1.535232-6.14093 2.046977-11.770115 1.535232-17.911045M953.635182 376.57971l-195.486256 77.273363-297.323339 327.516242 190.368816-61.921039zM618.442779 658.038981l-189.345328 66.014992v0.511744s0 0.511744 0.511744 0.511744l0.511745 0.511744 189.345327-65.503248-0.511744-0.511744c0-0.511744 0-0.511744-0.511744-1.535232 0.511744 0.511744 0.511744 0.511744 0 0M619.466267 659.574213L430.12094 725.589205s0 0.511744 0.511744 0.511745 0 0.511744 0.511744 0.511744l0.511744 0.511744 0.511744 0.511744 188.833583-65.503248-0.511744-0.511745-0.511744-0.511744c0.511744-0.511744 0-1.023488-0.511744-1.535232 0.511744 0.511744 0.511744 0.511744 0 0M621.513243 661.621189L431.656172 727.124438l0.511744 0.511744 0.511744 0.511744 0.511744 0.511744 0.511744 0.511744 188.833584-65.503248-0.511744-0.511744-0.511745-0.511744c0.511744 0 0.511744-0.511744 0-1.023489 0 0.511744 0 0 0 0M623.56022 663.668166l-189.345327 65.503248c0.511744 0.511744 1.023488 0.511744 1.535232 1.023489 0.511744 0.511744 1.023488 0.511744 2.046976 1.023488 0.511744 0.511744 1.535232 0.511744 2.046977 0.511744s1.535232 0.511744 2.046976 0.511744h2.046977l189.857071-65.503248h-2.046976c-1.023488 0-1.535232 0-2.558721-0.511744-0.511744 0-1.535232-0.511744-2.046976-0.511745-0.511744-0.511744-1.535232-0.511744-2.046977-1.023488-0.511744-0.511744-1.023488-0.511744-1.535232-1.023488M633.795102 666.738631l-189.345327 64.991504h2.046977l189.345327-64.991504h-2.046977c0.511744 0 0.511744 0 0 0M651.194403 719.448276L460.825587 781.369315l-1.535232 1.535233-1.535233 1.535232-1.535232 1.535232c-0.511744 0.511744-1.023488 1.023488-1.535232 1.023489L645.053473 725.077461l1.535233-1.535232 1.535232-1.535232 1.535232-1.535233c0.511744 0 1.023488-0.511744 1.535233-1.023488M645.053473 725.077461L454.684658 786.998501l-1.535233 1.535232c-0.511744 0.511744-1.023488 1.023488-1.535232 1.023488-0.511744 0.511744-1.023488 0.511744-1.535232 1.023489-1.023488 0.511744-1.535232 0.511744-2.046977 0.511744l190.368816-61.92104c0.511744 0 1.023488-0.511744 1.535232-0.511744 0.511744-0.511744 1.023488-0.511744 1.535232-1.023488 0.511744-0.511744 1.023488-1.023488 1.535233-1.023488 1.023488-0.511744 1.535232-1.023488 2.046976-1.535233M471.572214 891.394303c63.968016-18.934533 128.447776-36.845577 192.415792-55.78011-2.046977 0.511744-4.093953 1.023488-6.652674 1.535232-2.046977 0.511744-4.605697 0.511744-6.652673 1.023489-2.046977 0-4.605697 0.511744-6.652674 0.511744s-4.605697 0-6.652674-0.511744c-5.629185-0.511744-11.770115-1.535232-17.3993-3.582209-5.629185-2.046977-11.770115-4.093953-17.3993-7.676162-5.629185-3.070465-11.258371-7.164418-16.375812-11.258371-5.117441-4.605697-10.234883-9.723138-14.84058-15.352324l-189.345327 58.338831c4.605697 5.629185 9.211394 10.234883 14.328835 14.328835 5.117441 4.093953 10.234883 7.676162 15.864068 10.746627 5.629185 3.070465 10.746627 5.117441 16.887556 7.164418C434.726637 892.417791 440.355822 893.441279 445.985007 893.953023h6.652674c2.046977 0 4.605697 0 6.652674-0.511744 2.046977 0 4.093953-0.511744 6.652673-1.023488 1.535232 0 3.582209-0.511744 5.629186-1.023488zM571.362319 800.303848L382.528736 858.642679c0.511744 1.023488 1.535232 1.535232 2.046976 2.55872 0.511744 1.023488 1.535232 1.535232 2.046977 2.046977l2.046976 2.046976 2.046977 2.046977 189.345327-57.827087-2.046976-2.046976c-0.511744-0.511744-1.535232-1.535232-2.046977-2.558721-0.511744-1.023488-1.535232-1.535232-2.046977-2.55872-1.535232 0-2.046977-1.023488-2.55872-2.046977M579.550225 810.026987L390.716642 867.854073l3.070464 3.070465c1.023488 1.023488 2.046977 2.046977 3.070465 2.55872 1.023488 1.023488 2.046977 1.535232 3.070465 2.558721 1.023488 1.023488 2.046977 1.535232 3.070465 2.558721l189.857071-56.803599c-1.023488-1.023488-2.046977-1.535232-3.582209-2.55872-1.023488-1.023488-2.046977-1.535232-3.070464-2.558721l-3.070465-3.070465-3.582209-3.582208M592.855572 821.285357L402.998501 878.088956c3.582209 2.558721 6.652674 4.605697 10.234882 6.140929 3.582209 2.046977 7.164418 3.582209 10.746627 4.605697 3.582209 1.535232 7.164418 2.558721 10.746627 3.070465 3.582209 1.023488 7.164418 1.535232 11.25837 1.535232h9.211395c1.535232 0 3.070465 0 4.605697-0.511744 1.535232 0 3.070465-0.511744 4.605697-0.511744l191.904048-55.78011c-1.535232 0-3.070465 0.511744-4.605697 0.511744s-3.070465 0-4.605697 0.511744h-9.211395c-3.582209-0.511744-7.676162-1.023488-11.25837-2.046976-3.582209-1.023488-7.676162-2.046977-11.258371-3.582209-3.582209-1.535232-7.676162-3.070465-11.258371-5.117441-4.093953-1.023488-7.676162-3.070465-11.258371-5.629186M655.288356 837.661169L463.384308 893.441279c0.511744 0 1.535232 0 2.046976-0.511744 0.511744 0 1.023488 0 2.046977-0.511744 0.511744 0 1.535232-0.511744 2.046976-0.511744s1.535232-0.511744 2.046977-0.511744l192.415792-55.78011c-0.511744 0-1.535232 0.511744-2.046977 0.511744s-1.535232 0.511744-2.046976 0.511744-1.535232 0.511744-2.046977 0.511744c-1.023488 0.511744-2.046977 0.511744-2.55872 0.511744M327.772114 276.277861l-174.504748 89.555222 275.830085 358.22089 189.345328-66.014992zM303.72014 244.037981l-173.481259 92.113943 23.028485 29.681159L327.772114 276.277861zM888.643678 363.274363l18.422789-23.028486-18.422789-344.915542c-0.511744 0-2.046977-0.511744-4.605697-1.023488s-6.14093-1.535232-10.746627-2.558721c-4.605697-1.023488-9.723138-2.046977-15.864068-3.582209-6.14093-1.535232-12.793603-2.558721-19.446277-4.093953l-127.936031-26.610695v1.535233 1.535232 1.535233 1.535232l10.234882 234.37881c0.511744 8.69965-0.511744 16.375812-3.070465 23.54023-2.046977 7.164418-5.629185 13.305347-9.723138 17.911045-4.093953 5.117441-9.211394 8.69965-15.352324 10.746627-5.629185 2.046977-12.281859 3.070465-18.934533 1.535232l-115.654173-19.446277c-7.164418-1.023488-13.817091-4.093953-19.958021-8.187906-6.14093-4.093953-11.770115-9.723138-16.887556-16.375812s-8.69965-14.328836-11.770115-22.516742-4.605697-16.887556-4.605697-25.587206l-7.164418-240.007996v-6.14093l-142.264867-29.681159c-8.187906-1.535232-15.864068-3.070465-22.516742-4.605697-6.652674-1.535232-13.305347-2.558721-18.422789-3.582209-5.117441-1.023488-9.723138-2.046977-12.793603-2.558721-3.070465-0.511744-5.117441-1.023488-5.117441-1.023488l6.652674 371.014493 24.051974 31.728136 290.670664 382.272863s0.511744 0.511744 1.023489 1.535233l2.55872 2.55872c1.023488 1.023488 2.558721 2.046977 4.093953 3.070465 1.535232 1.023488 3.582209 1.535232 5.629186 1.535232 2.046977 0 3.582209 0 5.117441-0.511744s2.558721-1.023488 4.093953-2.046976c1.023488-0.511744 2.046977-1.535232 2.558721-2.046977l1.023488-1.023488 245.125437-296.811594zM297.067466-126.976512l-169.89905 111.048476 3.070465 352.07996 173.481259-92.113943zM221.329335 277.813093L50.406797 368.391804c-4.093953 2.046977-8.187906 5.117441-12.281859 7.676162-4.093953 3.070465-7.676162 6.14093-10.746627 9.723138-3.582209 3.582209-6.652674 7.164418-9.723139 11.258371-2.558721 3.582209-5.117441 7.676162-7.164417 12.281859l169.387306-89.043478c2.558721-4.605697 5.117441-9.211394 8.187906-13.817091 3.070465-4.093953 6.14093-8.187906 9.723138-11.770115 3.582209-3.582209 7.164418-7.164418 11.258371-10.234883 4.093953-1.535232 8.187906-4.093953 12.281859-6.652674M699.298351 812.073963l314.722639-368.967516c-3.582209-7.676162-7.164418-14.328836-11.770115-20.981509-4.605697-6.652674-9.211394-12.793603-14.328836-18.422789-5.117441-5.629185-10.746627-10.746627-16.887556-15.352324-6.14093-4.605697-12.281859-8.187906-18.934533-11.258371l-301.929035 342.868566-1.535233 1.535232-1.535232 1.535233-1.535233 1.535232-1.535232 1.535233c-1.023488 1.023488-2.046977 1.535232-3.070465 2.55872l-3.070465 1.535233c-1.023488 0.511744-2.046977 0.511744-2.55872 1.023488h-3.070465c-1.023488 0-2.558721-0.511744-3.582209-0.511744l-3.070465-1.535233c-1.023488-0.511744-2.046977-1.535232-3.070464-2.046976l-3.070465-3.070465-1.535233-1.535232-1.535232-1.535233c-0.511744-0.511744-1.023488-1.023488-1.535232-2.046976-0.511744-0.511744-1.023488-1.535232-1.535233-2.046977l-363.850075-448.7996c-7.676162 1.023488-15.352324 3.070465-22.004997 6.14093-7.164418 3.070465-13.817091 6.652674-19.446277 11.25837-6.14093 4.605697-11.770115 9.723138-16.375812 15.864068-5.117441 6.14093-9.211394 12.793603-12.793603 19.958021l390.972513 479.504248c4.605697 5.629185 9.723138 10.746627 14.84058 15.352324 5.117441 4.605697 10.746627 8.187906 16.375812 11.258371 5.629185 3.070465 11.258371 5.629185 17.399301 7.676162 5.629185 2.046977 11.770115 3.070465 17.3993 3.582209 5.629185 0.511744 11.770115 0.511744 17.3993-0.511744s11.258371-2.558721 16.375812-4.605698 10.746627-5.117441 15.352324-8.69965c6.14093-3.582209 10.746627-7.676162 14.328836-12.793603zM179.878061 320.7996L10.490755 409.843078 382.528736 858.642679l188.833583-58.338831z"  horiz-adv-x="1024" />

    
    <glyph glyph-name="zhongguohangtiantubiaoheji-weizhuanlunkuo-" unicode="&#58926;" d="M873.048276 40.253793h-557.903448A96.926897 96.926897 0 0 0 218.394483 136.827586V512.176552a96.926897 96.926897 0 0 0 96.750345 96.926896h557.903448a96.926897 96.926897 0 0 0 96.926896-96.926896V136.827586a96.926897 96.926897 0 0 0-96.926896-96.573793z m-557.903448 535.657931a63.735172 63.735172 0 0 1-63.558621-63.735172V136.827586a63.735172 63.735172 0 0 1 63.558621-63.735172h557.903448A63.735172 63.735172 0 0 1 936.783448 136.827586V512.176552a63.735172 63.735172 0 0 1-63.735172 63.735172zM824.849655 280.187586a16.066207 16.066207 0 0 0-12.182069 5.473104l-82.626207 90.217931a16.595862 16.595862 0 1 0 24.54069 22.422069l82.626207-90.217931a17.655172 17.655172 0 0 0-1.05931-23.48138 16.242759 16.242759 0 0 0-11.299311-4.413793zM551.017931 229.517241a15.713103 15.713103 0 0 0-11.29931 4.590345 17.655172 17.655172 0 0 0 0 23.48138l130.11862 136.297931a16.595862 16.595862 0 0 0 24.011035-22.951725l-130.648276-136.297931a17.655172 17.655172 0 0 0-12.182069-5.12zM491.52 251.409655a16.41931 16.41931 0 0 0-13.241379 6.532414l-95.867587 128.353103a16.595862 16.595862 0 1 0 26.482759 19.950345L504.761379 278.068966a16.41931 16.41931 0 0 0-13.241379-26.482759zM368.463448 370.582069a62.322759 62.322759 0 1 0 62.322759 62.146207 62.322759 62.322759 0 0 0-62.322759-62.146207z m0 91.277241a29.131034 29.131034 0 1 1 29.131035-29.131034 28.954483 28.954483 0 0 1-29.131035 29.131034zM510.057931 164.016552a62.322759 62.322759 0 1 0 62.322759 62.146207 62.322759 62.322759 0 0 0-62.322759-62.146207z m0 91.277241a29.131034 29.131034 0 1 1 29.131035-29.131034 28.954483 28.954483 0 0 1-29.131035 29.131034zM709.031724 356.104828a62.322759 62.322759 0 1 0 62.146207 62.322758 62.322759 62.322759 0 0 0-62.146207-62.322758z m0 91.277241a29.131034 29.131034 0 1 1 28.954483-28.954483 29.131034 29.131034 0 0 1-28.954483 28.954483zM847.448276 194.56a62.322759 62.322759 0 1 0 62.322758 62.322759A62.322759 62.322759 0 0 0 847.448276 194.56z m0 91.277241a29.131034 29.131034 0 1 1 28.248276-28.954482 29.131034 29.131034 0 0 1-28.248276 28.954482zM858.217931 643.884138H323.972414a16.772414 16.772414 0 0 0 0 33.368276h534.245517a16.772414 16.772414 0 0 0 0-33.368276zM796.777931 717.329655h-411.365517a16.595862 16.595862 0 0 0 0 33.191724h411.365517a16.595862 16.595862 0 0 0 0-33.191724z"  horiz-adv-x="1129" />

    
    </font>
</defs>
</svg>
